<svg xmlns="http://www.w3.org/2000/svg" width="2397" height="1147" viewBox="0 0 2397 1147" version="1.1"><path d="M 615.627 36.269 C 614.865 38.046, 595.272 80.171, 572.085 129.881 C 548.899 179.590, 530.057 220.371, 530.214 220.504 C 530.371 220.637, 531.962 221.489, 533.750 222.399 C 535.538 223.308, 537 224.230, 537 224.449 C 537 225.318, 450.953 409.447, 450.190 410.210 C 449.183 411.217, 443 409.173, 443 407.833 C 443 407.299, 451.250 389.170, 461.334 367.546 C 478.359 331.038, 479.448 328.365, 476.584 330.112 C 468.787 334.866, 459 329.644, 459 320.728 C 459 315.427, 461.496 311.109, 465.534 309.421 C 469.835 307.624, 471.433 307.637, 475.358 309.500 C 479.058 311.255, 481.145 314.206, 481.934 318.794 C 482.452 321.809, 483.227 320.529, 491.094 303.669 L 499.689 285.251 496.299 287.251 C 491.487 290.090, 485.438 289.173, 481.750 285.046 C 473.832 276.185, 483.403 261.760, 494.177 266.318 C 498.652 268.211, 501.195 271.270, 501.908 275.615 C 502.461 278.987, 503.368 277.360, 515.750 250.779 C 523.038 235.135, 529 221.847, 529 221.249 C 529 219.847, 518.635 216.408, 508.648 214.497 C 497.800 212.421, 480.574 212.596, 469.500 214.894 C 438.723 221.279, 412.991 240.509, 398.809 267.722 C 389.451 285.679, 386.538 298.848, 387.267 319.894 C 387.859 336.996, 389.871 345.705, 396.444 359.623 C 402.255 371.927, 407.876 380.021, 416.924 389.113 C 423.598 395.820, 438.727 407, 441.128 407 C 441.608 407, 442 407.432, 442 407.960 C 442 409.156, 303.151 707.266, 302.195 708.123 C 301.813 708.465, 296.775 706.948, 291 704.750 C 252.623 690.145, 207.474 687.693, 167.365 698.035 C 75.646 721.684, 12.067 803.804, 12.008 898.699 C 11.944 1001.466, 88.530 1089.164, 190.795 1103.428 C 203.770 1105.237, 230.444 1105.507, 243.026 1103.955 C 287.435 1098.478, 330.119 1078.145, 362.363 1047.107 C 389.694 1020.798, 411.318 982.808, 419.914 946 C 425.177 923.464, 426.609 892.608, 423.446 869.927 C 418.357 833.442, 403.114 798.050, 379.977 769 C 366.906 752.590, 346.048 733.942, 328.976 723.405 C 325.689 721.376, 323 719.481, 323 719.194 C 323 718.907, 354.500 651.076, 393 568.457 C 431.500 485.839, 463 417.738, 463 417.121 C 463 416.505, 462.191 416, 461.203 416 C 459.791 416, 444.379 448.244, 389.461 566.090 C 350.992 648.640, 319.211 716.370, 318.836 716.602 C 318.316 716.923, 313.177 714.444, 310.201 712.437 C 309.803 712.169, 448.890 413.720, 449.874 412.731 C 450.294 412.307, 452.601 412.654, 455 413.500 C 457.399 414.346, 459.665 414.693, 460.036 414.269 C 460.408 413.846, 470.279 392.913, 481.974 367.750 C 493.668 342.587, 503.521 322.007, 503.868 322.015 C 504.216 322.024, 505.103 322.413, 505.840 322.880 C 506.925 323.567, 506.779 324.514, 505.071 327.861 L 502.963 331.993 506.231 330 C 514.208 325.137, 524 330.247, 524 339.272 C 524 350.878, 511.290 355.774, 503.592 347.135 C 502.543 345.957, 501.415 343.339, 501.087 341.317 C 500.529 337.886, 499.305 340.187, 482.755 375.789 C 473.001 396.771, 464.904 414.463, 464.760 415.106 C 464.397 416.734, 468.873 417.831, 480.333 418.924 C 499.369 420.739, 517.581 417.309, 535.500 408.535 C 562.905 395.117, 581.799 371.862, 590.228 341.175 C 591.968 334.841, 592.350 330.530, 592.414 316.500 C 592.501 297.503, 591.251 290.867, 584.629 275.165 C 577.286 257.754, 561.044 238.694, 545.259 228.964 C 541.276 226.509, 538.013 224.111, 538.009 223.636 C 538.004 223.161, 557.350 181.239, 581 130.477 C 604.650 79.715, 624 37.774, 624 37.276 C 624 36.778, 622.427 35.621, 620.506 34.704 L 617.011 33.038 615.627 36.269 M 297.500 719.849 C 293.339 722.403, 283.213 733.043, 276.418 742 C 235.818 795.522, 177.023 914.539, 147.977 1002 C 133.895 1044.403, 128.488 1076.507, 135.210 1077.802 C 136.081 1077.970, 139.170 1076.170, 142.074 1073.803 C 178.227 1044.331, 258.785 888.099, 291.518 783.972 C 302.528 748.948, 306.885 720.109, 301.438 718.316 C 300.922 718.147, 299.150 718.837, 297.500 719.849 M 557.105 821.515 C 544.777 824.984, 533.617 833.970, 528.373 844.649 C 525.715 850.063, 525.500 851.359, 525.500 862 C 525.500 872.144, 525.776 874.018, 527.843 877.892 C 533.731 888.931, 540.931 893.846, 565.383 903.517 C 585.287 911.390, 591.971 916.223, 596.238 925.825 C 602.798 940.589, 596.414 957.733, 581.649 965.001 C 567.690 971.873, 552.084 969.281, 534.168 957.114 C 530.836 954.851, 527.860 953, 527.555 953 C 527.250 953, 527 956.057, 527 959.792 L 527 966.584 533.250 970.227 C 557.297 984.241, 583.383 982.748, 599.708 966.423 C 617.741 948.390, 615.645 918.334, 595.389 904.470 C 592.150 902.253, 584.100 898.258, 577.500 895.591 C 550.282 884.592, 544.661 881.094, 540.482 872.552 C 538.028 867.536, 537.792 866.150, 538.200 859.113 C 538.905 846.933, 544.071 839.636, 555.809 834.240 C 566.689 829.239, 580.457 830.543, 595.971 838.045 C 600.469 840.220, 604.565 842, 605.074 842 C 605.583 842, 606 839.308, 606 836.017 L 606 830.034 601.250 827.631 C 588.227 821.042, 568.498 818.309, 557.105 821.515 M 1507.669 821.594 C 1475.689 827.373, 1449.034 853.927, 1443.530 885.490 C 1438.870 912.213, 1446.291 937.027, 1464.500 955.601 C 1490.202 981.818, 1530.755 987.220, 1570.686 969.745 L 1580.500 965.450 1580.796 958.690 L 1581.093 951.931 1573.296 955.850 C 1540.377 972.397, 1508.751 973.149, 1485.405 957.938 C 1445.285 931.799, 1445.152 868.991, 1485.161 842.393 C 1507.693 827.413, 1539.116 827.443, 1571.649 842.473 L 1579 845.870 1579 839.399 L 1579 832.929 1574.605 831.045 C 1552.543 821.588, 1527.372 818.034, 1507.669 821.594 M 736 900 L 736 978 741.500 978 L 747 978 747 900 L 747 822 741.500 822 L 736 822 736 900 M 971 900 L 971 978 977.488 978 L 983.977 978 984.238 939.476 L 984.500 900.952 1024.820 939.476 L 1065.140 978 1072.810 978 L 1080.480 978 1074.490 972.147 C 1071.195 968.927, 1052.853 951.332, 1033.730 933.046 L 998.960 899.799 1012.927 885.150 C 1020.608 877.092, 1037.244 859.700, 1049.895 846.500 L 1072.897 822.500 1065.699 822.200 L 1058.500 821.900 1035.047 846.200 C 1022.148 859.565, 1005.390 876.800, 997.807 884.500 L 984.019 898.500 984.009 860.250 L 984 822 977.500 822 L 971 822 971 900 M 1173 831.500 L 1173 841 1178.500 841 L 1184 841 1184 831.500 L 1184 822 1178.500 822 L 1173 822 1173 831.500 M 2032 900 L 2032 978 2037.500 978 L 2043 978 2043 900 L 2043 822 2037.500 822 L 2032 822 2032 900 M 2145 831.500 L 2145 841 2150.500 841 L 2156 841 2156 831.500 L 2156 822 2150.500 822 L 2145 822 2145 831.500 M 1226.750 846.038 L 1223 850.961 1223 862.981 L 1223 875 1209.500 875 L 1196 875 1196 879.500 L 1196 884 1209.448 884 L 1222.895 884 1223.198 924.250 L 1223.500 964.500 1225.926 968.736 C 1232.106 979.525, 1246.663 982.839, 1262.251 977.007 L 1268 974.856 1268 969.604 L 1268 964.353 1260.750 966.789 C 1251.293 969.967, 1242.088 969.542, 1238.300 965.754 C 1234.722 962.177, 1234.071 954.692, 1234.033 916.750 L 1234 884 1248.500 884 L 1263 884 1263 879.500 L 1263 875 1248.500 875 L 1234 875 1234 858 C 1234 842.454, 1233.850 841.005, 1232.250 841.057 C 1231.287 841.088, 1228.813 843.330, 1226.750 846.038 M 2085.750 846.038 L 2082 850.961 2082 862.981 L 2082 875 2068.500 875 L 2055 875 2055 879.500 L 2055 884 2068.448 884 L 2081.895 884 2082.198 924.250 L 2082.500 964.500 2084.926 968.736 C 2091.106 979.525, 2105.663 982.839, 2121.251 977.007 L 2127 974.856 2127 969.604 L 2127 964.353 2119.750 966.789 C 2110.293 969.967, 2101.088 969.542, 2097.300 965.754 C 2093.722 962.177, 2093.071 954.692, 2093.033 916.750 L 2093 884 2107.500 884 L 2122 884 2122 879.500 L 2122 875 2107.500 875 L 2093 875 2093 858 C 2093 842.454, 2092.850 841.005, 2091.250 841.057 C 2090.287 841.088, 2087.813 843.330, 2085.750 846.038 M 657 874.512 C 653.975 875.342, 648.125 877.703, 644 879.760 L 636.500 883.500 636.197 889.341 L 635.895 895.182 639.206 892.656 C 641.028 891.267, 646.114 888.415, 650.509 886.319 C 657.929 882.781, 659.143 882.508, 667.500 882.504 C 678.194 882.499, 683.398 884.676, 687.139 890.719 C 689.121 893.921, 689.536 896.121, 689.845 905.083 L 690.210 915.665 680.146 916.885 C 647.582 920.832, 630.495 933.444, 630.588 953.464 C 630.613 958.668, 631.181 961.576, 632.772 964.634 C 642.173 982.706, 664.058 984.865, 686.725 969.956 L 689.950 967.835 690.627 972.070 C 692.138 981.516, 698.114 982.252, 710.517 974.522 C 717.999 969.858, 718 969.857, 718 965.429 C 718 962.993, 717.795 961, 717.544 961 C 717.294 961, 714.519 962.800, 711.379 965 C 704.885 969.549, 702.495 969.978, 701.630 966.750 C 701.299 965.513, 701.021 948.802, 701.014 929.616 C 701.004 905.078, 700.637 893.511, 699.778 890.616 C 698.111 885.003, 690.789 877.814, 684.465 875.582 C 677.563 873.146, 663.919 872.614, 657 874.512 M 807.251 874.545 C 796.107 877.546, 787.655 883.909, 780.802 894.458 C 774.867 903.593, 772.550 912.328, 772.568 925.500 C 772.590 942.633, 776.466 953.080, 786.965 964.303 C 799.506 977.710, 816.583 982.582, 836.564 978.455 C 845.327 976.645, 851.132 974.301, 858.017 969.794 L 863 966.532 863 960.355 L 863 954.178 856.565 958.492 C 835.133 972.864, 810.972 972.103, 795.435 956.565 C 792.274 953.404, 788.804 948.629, 787.332 945.413 C 784.731 939.733, 782.954 929.689, 783.783 925.355 L 784.233 923 824.732 923 L 865.230 923 864.539 917.250 C 863.439 908.111, 861.958 902.929, 858.623 896.554 C 849.128 878.404, 827.434 869.110, 807.251 874.545 M 906.734 874.088 C 892.117 877.532, 881.935 890.395, 883.307 903.684 C 884.453 914.786, 891.618 921.919, 908.780 929.043 C 921.243 934.215, 929.295 938.594, 932.436 941.904 C 934.826 944.422, 935.447 946.068, 935.775 950.749 C 936.269 957.819, 933.736 962.204, 926.961 966 C 923.078 968.176, 921.334 968.489, 913.500 968.418 C 904.597 968.336, 896.783 966.419, 885.750 961.608 L 882 959.973 882 965.529 L 882 971.085 888.207 974.020 C 902.199 980.638, 918.479 981.674, 929.460 976.647 C 947.957 968.179, 952.725 946.561, 939.083 933.023 C 935.896 929.861, 931.473 927.107, 924.567 923.987 C 897.171 911.610, 893.996 909.130, 894.004 900.102 C 894.009 894.136, 896.645 889.878, 902.437 886.484 C 912.663 880.491, 926.341 882.581, 941.250 892.416 L 944 894.230 944 888.129 L 944 882.029 938.007 879.003 C 927.184 873.540, 916.313 871.831, 906.734 874.088 M 1129.500 874.236 C 1121.571 877.086, 1112.591 885.059, 1104.811 896.157 L 1100.500 902.307 1100.222 888.654 L 1099.944 875 1094.472 875 L 1089 875 1089 926.500 L 1089 978 1094.500 978 L 1100 978 1100 945.884 L 1100 913.769 1104.687 906.719 C 1113.677 893.195, 1124.985 883.985, 1132.566 884.010 C 1136.662 884.023, 1145.015 888.115, 1149.835 892.470 L 1153.890 896.134 1156.506 891.991 C 1160.466 885.717, 1160.451 885.504, 1155.771 881.668 C 1146.703 874.238, 1137.074 871.514, 1129.500 874.236 M 1307.500 874.022 C 1302.320 875.062, 1293.566 878.407, 1288.500 881.283 C 1284.630 883.480, 1284.490 883.743, 1284.197 889.368 L 1283.895 895.182 1287.206 892.656 C 1289.028 891.267, 1294.114 888.415, 1298.509 886.319 C 1305.929 882.781, 1307.143 882.508, 1315.500 882.504 C 1326.194 882.499, 1331.398 884.676, 1335.139 890.719 C 1337.121 893.921, 1337.536 896.121, 1337.845 905.083 L 1338.210 915.665 1328.146 916.885 C 1295.582 920.832, 1278.495 933.444, 1278.588 953.464 C 1278.638 964.063, 1283.602 972.066, 1293.366 977.289 C 1296.796 979.123, 1299.033 979.487, 1306.500 979.425 C 1316.605 979.341, 1322.685 977.469, 1332.029 971.565 C 1338.115 967.719, 1337.726 967.524, 1339.440 975.284 C 1340.842 981.630, 1348.053 981.299, 1358.850 974.391 C 1365.944 969.853, 1366 969.782, 1366 965.408 C 1366 962.984, 1365.795 961, 1365.544 961 C 1365.294 961, 1362.519 962.800, 1359.379 965 C 1353.265 969.282, 1350.578 969.948, 1349.607 967.418 C 1349.273 966.548, 1349 949.740, 1349 930.067 C 1349 892.355, 1348.786 890.277, 1344.282 884.212 C 1337.739 875.402, 1322.147 871.082, 1307.500 874.022 M 1635.263 874.514 C 1626.566 876.404, 1618.350 881.072, 1611.231 888.169 C 1600.620 898.747, 1596 910.375, 1596 926.500 C 1596 942.551, 1600.663 954.343, 1611.160 964.840 C 1624.127 977.807, 1642.425 982.817, 1660.907 978.460 C 1673.923 975.392, 1685.801 966.321, 1693.383 953.657 C 1701.842 939.530, 1702.243 917.446, 1694.336 901.127 C 1690.752 893.730, 1680.402 883.026, 1673.041 879.102 C 1662.342 873.400, 1648.262 871.690, 1635.263 874.514 M 1758.804 874.929 C 1751.748 877.185, 1744.595 882.347, 1740 888.498 L 1736.500 893.184 1736.212 884.092 L 1735.925 875 1730.462 875 L 1725 875 1725 926.500 L 1725 978 1730.500 978 L 1736 978 1736 941.884 L 1736 905.768 1739.526 900.965 C 1749.351 887.581, 1763.824 881.599, 1778.099 885.024 C 1782.326 886.038, 1784.489 887.362, 1788.516 891.402 C 1796.870 899.784, 1797.261 901.977, 1797.748 943.250 L 1798.158 978 1803.579 978 L 1809 978 1808.992 945.250 C 1808.983 904.423, 1808.020 897.906, 1800.355 886.804 C 1792.567 875.525, 1773.754 870.148, 1758.804 874.929 M 1856.734 874.088 C 1842.117 877.532, 1831.935 890.395, 1833.307 903.684 C 1834.453 914.786, 1841.618 921.919, 1858.780 929.043 C 1871.243 934.215, 1879.295 938.594, 1882.436 941.904 C 1884.826 944.422, 1885.447 946.068, 1885.775 950.749 C 1886.269 957.819, 1883.736 962.204, 1876.961 966 C 1873.078 968.176, 1871.334 968.489, 1863.500 968.418 C 1854.597 968.336, 1846.783 966.419, 1835.750 961.608 L 1832 959.973 1832 965.529 L 1832 971.085 1838.207 974.020 C 1852.199 980.638, 1868.479 981.674, 1879.460 976.647 C 1897.957 968.179, 1902.725 946.561, 1889.083 933.023 C 1885.896 929.861, 1881.473 927.107, 1874.567 923.987 C 1847.171 911.610, 1843.996 909.130, 1844.004 900.102 C 1844.009 894.136, 1846.645 889.878, 1852.437 886.484 C 1862.663 880.491, 1876.341 882.581, 1891.250 892.416 L 1894 894.230 1894 888.129 L 1894 882.029 1888.007 879.003 C 1877.184 873.540, 1866.313 871.831, 1856.734 874.088 M 2219.804 874.929 C 2212.748 877.185, 2205.595 882.347, 2201 888.498 L 2197.500 893.184 2197.212 884.092 L 2196.925 875 2191.462 875 L 2186 875 2186 926.500 L 2186 978 2191.500 978 L 2197 978 2197 941.884 L 2197 905.768 2200.526 900.965 C 2210.351 887.581, 2224.824 881.599, 2239.099 885.024 C 2243.326 886.038, 2245.489 887.362, 2249.516 891.402 C 2257.870 899.784, 2258.261 901.977, 2258.748 943.250 L 2259.158 978 2264.579 978 L 2270 978 2269.992 945.250 C 2269.983 904.423, 2269.020 897.906, 2261.355 886.804 C 2253.567 875.525, 2234.754 870.148, 2219.804 874.929 M 1173 926.500 L 1173 978 1178.500 978 L 1184 978 1184 926.500 L 1184 875 1178.500 875 L 1173 875 1173 926.500 M 1918.237 912.250 C 1918.551 944.025, 1918.856 950.258, 1920.314 954.657 C 1925.870 971.426, 1941.181 981.021, 1960.304 979.715 C 1970.971 978.986, 1977.185 975.835, 1984.976 967.202 L 1991 960.528 1991 969.264 L 1991 978 1996.500 978 L 2002 978 2002 926.500 L 2002 875 1996.500 875 L 1991 875 1991 910.890 L 1991 946.780 1986.677 952.652 C 1978.841 963.297, 1971.390 967.878, 1960.489 968.753 C 1947.658 969.783, 1936.835 963.724, 1931.863 952.727 C 1929.540 947.588, 1929.495 946.892, 1929.193 911.250 L 1928.886 875 1923.377 875 L 1917.869 875 1918.237 912.250 M 2145 926.500 L 2145 978 2150.500 978 L 2156 978 2156 926.500 L 2156 875 2150.500 875 L 2145 875 2145 926.500 M 2325.715 876.040 C 2313.967 878.015, 2302.565 886.111, 2297.936 895.764 C 2295.170 901.534, 2294.102 915.638, 2295.977 921.632 C 2299.041 931.421, 2310.374 942.605, 2319.192 944.542 C 2322.196 945.202, 2322.055 945.332, 2314.394 948.959 C 2305.753 953.049, 2303.398 955.124, 2302.045 959.843 C 2300.069 966.731, 2305.818 974.703, 2314.067 976.515 C 2317.851 977.346, 2317.079 978.568, 2312.272 979.354 C 2306.334 980.325, 2296.785 985.342, 2293.283 989.330 C 2285.630 998.047, 2286.956 1012.737, 2296.090 1020.422 C 2303.953 1027.039, 2312.988 1029.853, 2329.023 1030.679 C 2349.024 1031.710, 2364.366 1027.071, 2372.858 1017.424 C 2375.123 1014.851, 2377.429 1011.115, 2377.983 1009.123 C 2379.328 1004.280, 2379.264 996.614, 2377.839 991.858 C 2376.473 987.299, 2370.990 980.563, 2366.939 978.469 C 2362.299 976.069, 2352.405 974.204, 2338 973.013 C 2321.327 971.635, 2316.523 970.480, 2313.974 967.240 C 2308.917 960.811, 2313.288 954.430, 2325.098 951 C 2344.758 945.291, 2352.258 942.567, 2356.380 939.636 C 2366.436 932.486, 2370.576 923.362, 2369.788 910.085 C 2369.282 901.555, 2367.896 898.224, 2361.325 889.750 L 2356.867 884 2367.934 884 L 2379 884 2379 879.500 L 2379 875 2354.750 875.118 C 2341.412 875.182, 2328.347 875.597, 2325.715 876.040 M 809.324 885.439 C 798.365 888.866, 789.441 898.438, 786.193 910.250 L 785.161 914 818.527 914 L 851.892 914 850.364 908.750 C 846.762 896.375, 839.776 888.496, 829.774 885.526 C 823.599 883.692, 815.029 883.656, 809.324 885.439 M 1637.024 885.539 C 1629.554 887.634, 1624.316 890.885, 1618.646 896.948 C 1602.562 914.142, 1603.633 942.261, 1620.983 958.324 C 1629.259 965.986, 1635.681 968.375, 1648 968.375 C 1660.032 968.375, 1666.676 965.977, 1674.533 958.796 C 1684.285 949.883, 1688.095 940.960, 1688.109 927 C 1688.124 911.756, 1682.701 900.273, 1671.476 891.784 C 1668.739 889.715, 1664.475 887.310, 1662 886.440 C 1655.398 884.121, 1643.597 883.695, 1637.024 885.539 M 2324.071 885.165 C 2315.997 887.484, 2308.409 895.263, 2306.096 903.591 C 2301.557 919.939, 2312.905 936.999, 2329.453 938.707 C 2340.569 939.855, 2350.828 934.222, 2356.494 923.859 C 2360.374 916.763, 2360.633 906.971, 2357.133 899.761 C 2351.355 887.859, 2336.904 881.480, 2324.071 885.165 M 671.209 926.525 C 653.733 930.320, 641 941.842, 641 953.862 C 641 958.705, 644.923 964.870, 649.846 967.764 C 653.803 970.090, 655.626 970.500, 662.021 970.500 C 668.473 970.500, 670.463 970.044, 676.021 967.292 C 679.584 965.528, 684.188 962.683, 686.250 960.970 L 690 957.854 690 941.427 L 690 925 683.750 925.079 C 680.313 925.123, 674.669 925.774, 671.209 926.525 M 1319.209 926.525 C 1301.733 930.320, 1289 941.842, 1289 953.862 C 1289 958.705, 1292.923 964.870, 1297.846 967.764 C 1301.803 970.090, 1303.626 970.500, 1310.021 970.500 C 1316.473 970.500, 1318.463 970.044, 1324.021 967.292 C 1327.584 965.528, 1332.188 962.683, 1334.250 960.970 L 1338 957.854 1338 941.427 L 1338 925 1331.750 925.079 C 1328.313 925.123, 1322.669 925.774, 1319.209 926.525 M 2318 985.039 C 2315.525 985.547, 2311.073 987.208, 2308.107 988.731 C 2300.974 992.394, 2298.738 996.353, 2299.263 1004.391 C 2299.615 1009.780, 2299.995 1010.605, 2303.724 1014.084 C 2309.896 1019.840, 2316.492 1021.469, 2333.500 1021.435 C 2345.758 1021.411, 2348.232 1021.118, 2353.381 1019.083 C 2364.863 1014.544, 2370.345 1006.707, 2368.035 998.131 C 2366.541 992.583, 2363.815 989.606, 2357.787 986.938 C 2353.121 984.874, 2350.738 984.571, 2337.500 984.358 C 2329.250 984.225, 2320.475 984.532, 2318 985.039 M 156.544 1001.146 C 156.284 1001.891, 155.942 1003.816, 155.785 1005.425 C 155.501 1008.336, 155.545 1008.360, 165 1010.629 C 177.710 1013.679, 177.719 1013.679, 178.926 1009.306 C 179.487 1007.275, 179.845 1005.529, 179.723 1005.426 C 179.600 1005.324, 175 1004.226, 169.500 1002.986 C 164 1001.747, 158.941 1000.521, 158.258 1000.263 C 157.576 1000.004, 156.804 1000.402, 156.544 1001.146 M 148.625 1019.125 C 148.281 1020.844, 148 1022.606, 148 1023.041 C 148 1023.642, 168.208 1029, 170.473 1029 C 171.198 1029, 172.284 1021.951, 171.657 1021.323 C 171.033 1020.699, 152.259 1016.005, 150.375 1016.002 C 149.756 1016.001, 148.969 1017.406, 148.625 1019.125" stroke="none" fill="#531e1d" fill-rule="evenodd"/><path d="M 0 573.500 L 0 1147.001 1198.750 1146.750 L 2397.500 1146.500 2397.751 573.250 L 2398.002 0 1199.001 0 L 0 0 0 573.500 M 0.497 574 C 0.497 889.425, 0.611 1018.462, 0.750 860.750 C 0.889 703.037, 0.889 444.962, 0.750 287.250 C 0.611 129.537, 0.497 258.575, 0.497 574 M 615.627 36.269 C 614.865 38.046, 595.272 80.171, 572.085 129.881 C 548.899 179.590, 530.057 220.371, 530.214 220.504 C 530.371 220.637, 531.962 221.489, 533.750 222.399 C 535.538 223.308, 537 224.230, 537 224.449 C 537 225.318, 450.953 409.447, 450.190 410.210 C 449.183 411.217, 443 409.173, 443 407.833 C 443 407.299, 451.250 389.170, 461.334 367.546 C 478.359 331.038, 479.448 328.365, 476.584 330.112 C 468.787 334.866, 459 329.644, 459 320.728 C 459 315.427, 461.496 311.109, 465.534 309.421 C 469.835 307.624, 471.433 307.637, 475.358 309.500 C 479.058 311.255, 481.145 314.206, 481.934 318.794 C 482.452 321.809, 483.227 320.529, 491.094 303.669 L 499.689 285.251 496.299 287.251 C 491.487 290.090, 485.438 289.173, 481.750 285.046 C 473.832 276.185, 483.403 261.760, 494.177 266.318 C 498.652 268.211, 501.195 271.270, 501.908 275.615 C 502.461 278.987, 503.368 277.360, 515.750 250.779 C 523.038 235.135, 529 221.847, 529 221.249 C 529 219.847, 518.635 216.408, 508.648 214.497 C 497.800 212.421, 480.574 212.596, 469.500 214.894 C 438.723 221.279, 412.991 240.509, 398.809 267.722 C 389.451 285.679, 386.538 298.848, 387.267 319.894 C 387.859 336.996, 389.871 345.705, 396.444 359.623 C 402.255 371.927, 407.876 380.021, 416.924 389.113 C 423.598 395.820, 438.727 407, 441.128 407 C 441.608 407, 442 407.432, 442 407.960 C 442 409.156, 303.151 707.266, 302.195 708.123 C 301.813 708.465, 296.775 706.948, 291 704.750 C 252.623 690.145, 207.474 687.693, 167.365 698.035 C 75.646 721.684, 12.067 803.804, 12.008 898.699 C 11.944 1001.466, 88.530 1089.164, 190.795 1103.428 C 203.770 1105.237, 230.444 1105.507, 243.026 1103.955 C 287.435 1098.478, 330.119 1078.145, 362.363 1047.107 C 389.694 1020.798, 411.318 982.808, 419.914 946 C 425.177 923.464, 426.609 892.608, 423.446 869.927 C 418.357 833.442, 403.114 798.050, 379.977 769 C 366.906 752.590, 346.048 733.942, 328.976 723.405 C 325.689 721.376, 323 719.481, 323 719.194 C 323 718.907, 354.500 651.076, 393 568.457 C 431.500 485.839, 463 417.738, 463 417.121 C 463 416.505, 462.191 416, 461.203 416 C 459.791 416, 444.379 448.244, 389.461 566.090 C 350.992 648.640, 319.211 716.370, 318.836 716.602 C 318.316 716.923, 313.177 714.444, 310.201 712.437 C 309.803 712.169, 448.890 413.720, 449.874 412.731 C 450.294 412.307, 452.601 412.654, 455 413.500 C 457.399 414.346, 459.665 414.693, 460.036 414.269 C 460.408 413.846, 470.279 392.913, 481.974 367.750 C 493.668 342.587, 503.521 322.007, 503.868 322.015 C 504.216 322.024, 505.103 322.413, 505.840 322.880 C 506.925 323.567, 506.779 324.514, 505.071 327.861 L 502.963 331.993 506.231 330 C 514.208 325.137, 524 330.247, 524 339.272 C 524 350.878, 511.290 355.774, 503.592 347.135 C 502.543 345.957, 501.415 343.339, 501.087 341.317 C 500.529 337.886, 499.305 340.187, 482.755 375.789 C 473.001 396.771, 464.904 414.463, 464.760 415.106 C 464.397 416.734, 468.873 417.831, 480.333 418.924 C 499.369 420.739, 517.581 417.309, 535.500 408.535 C 562.905 395.117, 581.799 371.862, 590.228 341.175 C 591.968 334.841, 592.350 330.530, 592.414 316.500 C 592.501 297.503, 591.251 290.867, 584.629 275.165 C 577.286 257.754, 561.044 238.694, 545.259 228.964 C 541.276 226.509, 538.013 224.111, 538.009 223.636 C 538.004 223.161, 557.350 181.239, 581 130.477 C 604.650 79.715, 624 37.774, 624 37.276 C 624 36.778, 622.427 35.621, 620.506 34.704 L 617.011 33.038 615.627 36.269 M 297.500 719.849 C 293.339 722.403, 283.213 733.043, 276.418 742 C 235.818 795.522, 177.023 914.539, 147.977 1002 C 133.895 1044.403, 128.488 1076.507, 135.210 1077.802 C 136.081 1077.970, 139.170 1076.170, 142.074 1073.803 C 178.227 1044.331, 258.785 888.099, 291.518 783.972 C 302.528 748.948, 306.885 720.109, 301.438 718.316 C 300.922 718.147, 299.150 718.837, 297.500 719.849 M 557.105 821.515 C 544.777 824.984, 533.617 833.970, 528.373 844.649 C 525.715 850.063, 525.500 851.359, 525.500 862 C 525.500 872.144, 525.776 874.018, 527.843 877.892 C 533.731 888.931, 540.931 893.846, 565.383 903.517 C 585.287 911.390, 591.971 916.223, 596.238 925.825 C 602.798 940.589, 596.414 957.733, 581.649 965.001 C 567.690 971.873, 552.084 969.281, 534.168 957.114 C 530.836 954.851, 527.860 953, 527.555 953 C 527.250 953, 527 956.057, 527 959.792 L 527 966.584 533.250 970.227 C 557.297 984.241, 583.383 982.748, 599.708 966.423 C 617.741 948.390, 615.645 918.334, 595.389 904.470 C 592.150 902.253, 584.100 898.258, 577.500 895.591 C 550.282 884.592, 544.661 881.094, 540.482 872.552 C 538.028 867.536, 537.792 866.150, 538.200 859.113 C 538.905 846.933, 544.071 839.636, 555.809 834.240 C 566.689 829.239, 580.457 830.543, 595.971 838.045 C 600.469 840.220, 604.565 842, 605.074 842 C 605.583 842, 606 839.308, 606 836.017 L 606 830.034 601.250 827.631 C 588.227 821.042, 568.498 818.309, 557.105 821.515 M 1507.669 821.594 C 1475.689 827.373, 1449.034 853.927, 1443.530 885.490 C 1438.870 912.213, 1446.291 937.027, 1464.500 955.601 C 1490.202 981.818, 1530.755 987.220, 1570.686 969.745 L 1580.500 965.450 1580.796 958.690 L 1581.093 951.931 1573.296 955.850 C 1540.377 972.397, 1508.751 973.149, 1485.405 957.938 C 1445.285 931.799, 1445.152 868.991, 1485.161 842.393 C 1507.693 827.413, 1539.116 827.443, 1571.649 842.473 L 1579 845.870 1579 839.399 L 1579 832.929 1574.605 831.045 C 1552.543 821.588, 1527.372 818.034, 1507.669 821.594 M 736 900 L 736 978 741.500 978 L 747 978 747 900 L 747 822 741.500 822 L 736 822 736 900 M 971 900 L 971 978 977.488 978 L 983.977 978 984.238 939.476 L 984.500 900.952 1024.820 939.476 L 1065.140 978 1072.810 978 L 1080.480 978 1074.490 972.147 C 1071.195 968.927, 1052.853 951.332, 1033.730 933.046 L 998.960 899.799 1012.927 885.150 C 1020.608 877.092, 1037.244 859.700, 1049.895 846.500 L 1072.897 822.500 1065.699 822.200 L 1058.500 821.900 1035.047 846.200 C 1022.148 859.565, 1005.390 876.800, 997.807 884.500 L 984.019 898.500 984.009 860.250 L 984 822 977.500 822 L 971 822 971 900 M 1173 831.500 L 1173 841 1178.500 841 L 1184 841 1184 831.500 L 1184 822 1178.500 822 L 1173 822 1173 831.500 M 2032 900 L 2032 978 2037.500 978 L 2043 978 2043 900 L 2043 822 2037.500 822 L 2032 822 2032 900 M 2145 831.500 L 2145 841 2150.500 841 L 2156 841 2156 831.500 L 2156 822 2150.500 822 L 2145 822 2145 831.500 M 1226.750 846.038 L 1223 850.961 1223 862.981 L 1223 875 1209.500 875 L 1196 875 1196 879.500 L 1196 884 1209.448 884 L 1222.895 884 1223.198 924.250 L 1223.500 964.500 1225.926 968.736 C 1232.106 979.525, 1246.663 982.839, 1262.251 977.007 L 1268 974.856 1268 969.604 L 1268 964.353 1260.750 966.789 C 1251.293 969.967, 1242.088 969.542, 1238.300 965.754 C 1234.722 962.177, 1234.071 954.692, 1234.033 916.750 L 1234 884 1248.500 884 L 1263 884 1263 879.500 L 1263 875 1248.500 875 L 1234 875 1234 858 C 1234 842.454, 1233.850 841.005, 1232.250 841.057 C 1231.287 841.088, 1228.813 843.330, 1226.750 846.038 M 2085.750 846.038 L 2082 850.961 2082 862.981 L 2082 875 2068.500 875 L 2055 875 2055 879.500 L 2055 884 2068.448 884 L 2081.895 884 2082.198 924.250 L 2082.500 964.500 2084.926 968.736 C 2091.106 979.525, 2105.663 982.839, 2121.251 977.007 L 2127 974.856 2127 969.604 L 2127 964.353 2119.750 966.789 C 2110.293 969.967, 2101.088 969.542, 2097.300 965.754 C 2093.722 962.177, 2093.071 954.692, 2093.033 916.750 L 2093 884 2107.500 884 L 2122 884 2122 879.500 L 2122 875 2107.500 875 L 2093 875 2093 858 C 2093 842.454, 2092.850 841.005, 2091.250 841.057 C 2090.287 841.088, 2087.813 843.330, 2085.750 846.038 M 657 874.512 C 653.975 875.342, 648.125 877.703, 644 879.760 L 636.500 883.500 636.197 889.341 L 635.895 895.182 639.206 892.656 C 641.028 891.267, 646.114 888.415, 650.509 886.319 C 657.929 882.781, 659.143 882.508, 667.500 882.504 C 678.194 882.499, 683.398 884.676, 687.139 890.719 C 689.121 893.921, 689.536 896.121, 689.845 905.083 L 690.210 915.665 680.146 916.885 C 647.582 920.832, 630.495 933.444, 630.588 953.464 C 630.613 958.668, 631.181 961.576, 632.772 964.634 C 642.173 982.706, 664.058 984.865, 686.725 969.956 L 689.950 967.835 690.627 972.070 C 692.138 981.516, 698.114 982.252, 710.517 974.522 C 717.999 969.858, 718 969.857, 718 965.429 C 718 962.993, 717.795 961, 717.544 961 C 717.294 961, 714.519 962.800, 711.379 965 C 704.885 969.549, 702.495 969.978, 701.630 966.750 C 701.299 965.513, 701.021 948.802, 701.014 929.616 C 701.004 905.078, 700.637 893.511, 699.778 890.616 C 698.111 885.003, 690.789 877.814, 684.465 875.582 C 677.563 873.146, 663.919 872.614, 657 874.512 M 807.251 874.545 C 796.107 877.546, 787.655 883.909, 780.802 894.458 C 774.867 903.593, 772.550 912.328, 772.568 925.500 C 772.590 942.633, 776.466 953.080, 786.965 964.303 C 799.506 977.710, 816.583 982.582, 836.564 978.455 C 845.327 976.645, 851.132 974.301, 858.017 969.794 L 863 966.532 863 960.355 L 863 954.178 856.565 958.492 C 835.133 972.864, 810.972 972.103, 795.435 956.565 C 792.274 953.404, 788.804 948.629, 787.332 945.413 C 784.731 939.733, 782.954 929.689, 783.783 925.355 L 784.233 923 824.732 923 L 865.230 923 864.539 917.250 C 863.439 908.111, 861.958 902.929, 858.623 896.554 C 849.128 878.404, 827.434 869.110, 807.251 874.545 M 906.734 874.088 C 892.117 877.532, 881.935 890.395, 883.307 903.684 C 884.453 914.786, 891.618 921.919, 908.780 929.043 C 921.243 934.215, 929.295 938.594, 932.436 941.904 C 934.826 944.422, 935.447 946.068, 935.775 950.749 C 936.269 957.819, 933.736 962.204, 926.961 966 C 923.078 968.176, 921.334 968.489, 913.500 968.418 C 904.597 968.336, 896.783 966.419, 885.750 961.608 L 882 959.973 882 965.529 L 882 971.085 888.207 974.020 C 902.199 980.638, 918.479 981.674, 929.460 976.647 C 947.957 968.179, 952.725 946.561, 939.083 933.023 C 935.896 929.861, 931.473 927.107, 924.567 923.987 C 897.171 911.610, 893.996 909.130, 894.004 900.102 C 894.009 894.136, 896.645 889.878, 902.437 886.484 C 912.663 880.491, 926.341 882.581, 941.250 892.416 L 944 894.230 944 888.129 L 944 882.029 938.007 879.003 C 927.184 873.540, 916.313 871.831, 906.734 874.088 M 1129.500 874.236 C 1121.571 877.086, 1112.591 885.059, 1104.811 896.157 L 1100.500 902.307 1100.222 888.654 L 1099.944 875 1094.472 875 L 1089 875 1089 926.500 L 1089 978 1094.500 978 L 1100 978 1100 945.884 L 1100 913.769 1104.687 906.719 C 1113.677 893.195, 1124.985 883.985, 1132.566 884.010 C 1136.662 884.023, 1145.015 888.115, 1149.835 892.470 L 1153.890 896.134 1156.506 891.991 C 1160.466 885.717, 1160.451 885.504, 1155.771 881.668 C 1146.703 874.238, 1137.074 871.514, 1129.500 874.236 M 1307.500 874.022 C 1302.320 875.062, 1293.566 878.407, 1288.500 881.283 C 1284.630 883.480, 1284.490 883.743, 1284.197 889.368 L 1283.895 895.182 1287.206 892.656 C 1289.028 891.267, 1294.114 888.415, 1298.509 886.319 C 1305.929 882.781, 1307.143 882.508, 1315.500 882.504 C 1326.194 882.499, 1331.398 884.676, 1335.139 890.719 C 1337.121 893.921, 1337.536 896.121, 1337.845 905.083 L 1338.210 915.665 1328.146 916.885 C 1295.582 920.832, 1278.495 933.444, 1278.588 953.464 C 1278.638 964.063, 1283.602 972.066, 1293.366 977.289 C 1296.796 979.123, 1299.033 979.487, 1306.500 979.425 C 1316.605 979.341, 1322.685 977.469, 1332.029 971.565 C 1338.115 967.719, 1337.726 967.524, 1339.440 975.284 C 1340.842 981.630, 1348.053 981.299, 1358.850 974.391 C 1365.944 969.853, 1366 969.782, 1366 965.408 C 1366 962.984, 1365.795 961, 1365.544 961 C 1365.294 961, 1362.519 962.800, 1359.379 965 C 1353.265 969.282, 1350.578 969.948, 1349.607 967.418 C 1349.273 966.548, 1349 949.740, 1349 930.067 C 1349 892.355, 1348.786 890.277, 1344.282 884.212 C 1337.739 875.402, 1322.147 871.082, 1307.500 874.022 M 1635.263 874.514 C 1626.566 876.404, 1618.350 881.072, 1611.231 888.169 C 1600.620 898.747, 1596 910.375, 1596 926.500 C 1596 942.551, 1600.663 954.343, 1611.160 964.840 C 1624.127 977.807, 1642.425 982.817, 1660.907 978.460 C 1673.923 975.392, 1685.801 966.321, 1693.383 953.657 C 1701.842 939.530, 1702.243 917.446, 1694.336 901.127 C 1690.752 893.730, 1680.402 883.026, 1673.041 879.102 C 1662.342 873.400, 1648.262 871.690, 1635.263 874.514 M 1758.804 874.929 C 1751.748 877.185, 1744.595 882.347, 1740 888.498 L 1736.500 893.184 1736.212 884.092 L 1735.925 875 1730.462 875 L 1725 875 1725 926.500 L 1725 978 1730.500 978 L 1736 978 1736 941.884 L 1736 905.768 1739.526 900.965 C 1749.351 887.581, 1763.824 881.599, 1778.099 885.024 C 1782.326 886.038, 1784.489 887.362, 1788.516 891.402 C 1796.870 899.784, 1797.261 901.977, 1797.748 943.250 L 1798.158 978 1803.579 978 L 1809 978 1808.992 945.250 C 1808.983 904.423, 1808.020 897.906, 1800.355 886.804 C 1792.567 875.525, 1773.754 870.148, 1758.804 874.929 M 1856.734 874.088 C 1842.117 877.532, 1831.935 890.395, 1833.307 903.684 C 1834.453 914.786, 1841.618 921.919, 1858.780 929.043 C 1871.243 934.215, 1879.295 938.594, 1882.436 941.904 C 1884.826 944.422, 1885.447 946.068, 1885.775 950.749 C 1886.269 957.819, 1883.736 962.204, 1876.961 966 C 1873.078 968.176, 1871.334 968.489, 1863.500 968.418 C 1854.597 968.336, 1846.783 966.419, 1835.750 961.608 L 1832 959.973 1832 965.529 L 1832 971.085 1838.207 974.020 C 1852.199 980.638, 1868.479 981.674, 1879.460 976.647 C 1897.957 968.179, 1902.725 946.561, 1889.083 933.023 C 1885.896 929.861, 1881.473 927.107, 1874.567 923.987 C 1847.171 911.610, 1843.996 909.130, 1844.004 900.102 C 1844.009 894.136, 1846.645 889.878, 1852.437 886.484 C 1862.663 880.491, 1876.341 882.581, 1891.250 892.416 L 1894 894.230 1894 888.129 L 1894 882.029 1888.007 879.003 C 1877.184 873.540, 1866.313 871.831, 1856.734 874.088 M 2219.804 874.929 C 2212.748 877.185, 2205.595 882.347, 2201 888.498 L 2197.500 893.184 2197.212 884.092 L 2196.925 875 2191.462 875 L 2186 875 2186 926.500 L 2186 978 2191.500 978 L 2197 978 2197 941.884 L 2197 905.768 2200.526 900.965 C 2210.351 887.581, 2224.824 881.599, 2239.099 885.024 C 2243.326 886.038, 2245.489 887.362, 2249.516 891.402 C 2257.870 899.784, 2258.261 901.977, 2258.748 943.250 L 2259.158 978 2264.579 978 L 2270 978 2269.992 945.250 C 2269.983 904.423, 2269.020 897.906, 2261.355 886.804 C 2253.567 875.525, 2234.754 870.148, 2219.804 874.929 M 1173 926.500 L 1173 978 1178.500 978 L 1184 978 1184 926.500 L 1184 875 1178.500 875 L 1173 875 1173 926.500 M 1918.237 912.250 C 1918.551 944.025, 1918.856 950.258, 1920.314 954.657 C 1925.870 971.426, 1941.181 981.021, 1960.304 979.715 C 1970.971 978.986, 1977.185 975.835, 1984.976 967.202 L 1991 960.528 1991 969.264 L 1991 978 1996.500 978 L 2002 978 2002 926.500 L 2002 875 1996.500 875 L 1991 875 1991 910.890 L 1991 946.780 1986.677 952.652 C 1978.841 963.297, 1971.390 967.878, 1960.489 968.753 C 1947.658 969.783, 1936.835 963.724, 1931.863 952.727 C 1929.540 947.588, 1929.495 946.892, 1929.193 911.250 L 1928.886 875 1923.377 875 L 1917.869 875 1918.237 912.250 M 2145 926.500 L 2145 978 2150.500 978 L 2156 978 2156 926.500 L 2156 875 2150.500 875 L 2145 875 2145 926.500 M 2325.715 876.040 C 2313.967 878.015, 2302.565 886.111, 2297.936 895.764 C 2295.170 901.534, 2294.102 915.638, 2295.977 921.632 C 2299.041 931.421, 2310.374 942.605, 2319.192 944.542 C 2322.196 945.202, 2322.055 945.332, 2314.394 948.959 C 2305.753 953.049, 2303.398 955.124, 2302.045 959.843 C 2300.069 966.731, 2305.818 974.703, 2314.067 976.515 C 2317.851 977.346, 2317.079 978.568, 2312.272 979.354 C 2306.334 980.325, 2296.785 985.342, 2293.283 989.330 C 2285.630 998.047, 2286.956 1012.737, 2296.090 1020.422 C 2303.953 1027.039, 2312.988 1029.853, 2329.023 1030.679 C 2349.024 1031.710, 2364.366 1027.071, 2372.858 1017.424 C 2375.123 1014.851, 2377.429 1011.115, 2377.983 1009.123 C 2379.328 1004.280, 2379.264 996.614, 2377.839 991.858 C 2376.473 987.299, 2370.990 980.563, 2366.939 978.469 C 2362.299 976.069, 2352.405 974.204, 2338 973.013 C 2321.327 971.635, 2316.523 970.480, 2313.974 967.240 C 2308.917 960.811, 2313.288 954.430, 2325.098 951 C 2344.758 945.291, 2352.258 942.567, 2356.380 939.636 C 2366.436 932.486, 2370.576 923.362, 2369.788 910.085 C 2369.282 901.555, 2367.896 898.224, 2361.325 889.750 L 2356.867 884 2367.934 884 L 2379 884 2379 879.500 L 2379 875 2354.750 875.118 C 2341.412 875.182, 2328.347 875.597, 2325.715 876.040 M 809.324 885.439 C 798.365 888.866, 789.441 898.438, 786.193 910.250 L 785.161 914 818.527 914 L 851.892 914 850.364 908.750 C 846.762 896.375, 839.776 888.496, 829.774 885.526 C 823.599 883.692, 815.029 883.656, 809.324 885.439 M 1637.024 885.539 C 1629.554 887.634, 1624.316 890.885, 1618.646 896.948 C 1602.562 914.142, 1603.633 942.261, 1620.983 958.324 C 1629.259 965.986, 1635.681 968.375, 1648 968.375 C 1660.032 968.375, 1666.676 965.977, 1674.533 958.796 C 1684.285 949.883, 1688.095 940.960, 1688.109 927 C 1688.124 911.756, 1682.701 900.273, 1671.476 891.784 C 1668.739 889.715, 1664.475 887.310, 1662 886.440 C 1655.398 884.121, 1643.597 883.695, 1637.024 885.539 M 2324.071 885.165 C 2315.997 887.484, 2308.409 895.263, 2306.096 903.591 C 2301.557 919.939, 2312.905 936.999, 2329.453 938.707 C 2340.569 939.855, 2350.828 934.222, 2356.494 923.859 C 2360.374 916.763, 2360.633 906.971, 2357.133 899.761 C 2351.355 887.859, 2336.904 881.480, 2324.071 885.165 M 671.209 926.525 C 653.733 930.320, 641 941.842, 641 953.862 C 641 958.705, 644.923 964.870, 649.846 967.764 C 653.803 970.090, 655.626 970.500, 662.021 970.500 C 668.473 970.500, 670.463 970.044, 676.021 967.292 C 679.584 965.528, 684.188 962.683, 686.250 960.970 L 690 957.854 690 941.427 L 690 925 683.750 925.079 C 680.313 925.123, 674.669 925.774, 671.209 926.525 M 1319.209 926.525 C 1301.733 930.320, 1289 941.842, 1289 953.862 C 1289 958.705, 1292.923 964.870, 1297.846 967.764 C 1301.803 970.090, 1303.626 970.500, 1310.021 970.500 C 1316.473 970.500, 1318.463 970.044, 1324.021 967.292 C 1327.584 965.528, 1332.188 962.683, 1334.250 960.970 L 1338 957.854 1338 941.427 L 1338 925 1331.750 925.079 C 1328.313 925.123, 1322.669 925.774, 1319.209 926.525 M 2318 985.039 C 2315.525 985.547, 2311.073 987.208, 2308.107 988.731 C 2300.974 992.394, 2298.738 996.353, 2299.263 1004.391 C 2299.615 1009.780, 2299.995 1010.605, 2303.724 1014.084 C 2309.896 1019.840, 2316.492 1021.469, 2333.500 1021.435 C 2345.758 1021.411, 2348.232 1021.118, 2353.381 1019.083 C 2364.863 1014.544, 2370.345 1006.707, 2368.035 998.131 C 2366.541 992.583, 2363.815 989.606, 2357.787 986.938 C 2353.121 984.874, 2350.738 984.571, 2337.500 984.358 C 2329.250 984.225, 2320.475 984.532, 2318 985.039 M 156.544 1001.146 C 156.284 1001.891, 155.942 1003.816, 155.785 1005.425 C 155.501 1008.336, 155.545 1008.360, 165 1010.629 C 177.710 1013.679, 177.719 1013.679, 178.926 1009.306 C 179.487 1007.275, 179.845 1005.529, 179.723 1005.426 C 179.600 1005.324, 175 1004.226, 169.500 1002.986 C 164 1001.747, 158.941 1000.521, 158.258 1000.263 C 157.576 1000.004, 156.804 1000.402, 156.544 1001.146 M 148.625 1019.125 C 148.281 1020.844, 148 1022.606, 148 1023.041 C 148 1023.642, 168.208 1029, 170.473 1029 C 171.198 1029, 172.284 1021.951, 171.657 1021.323 C 171.033 1020.699, 152.259 1016.005, 150.375 1016.002 C 149.756 1016.001, 148.969 1017.406, 148.625 1019.125" stroke="none" fill="#fbfbfb" fill-rule="evenodd"/></svg>