<?xml version="1.0" standalone="no"?>
<!DOCTYPE svg PUBLIC "-//W3C//DTD SVG 20010904//EN"
 "http://www.w3.org/TR/2001/REC-SVG-20010904/DTD/svg10.dtd">
<svg version="1.0" xmlns="http://www.w3.org/2000/svg"
 width="1383.000000pt" height="3464.000000pt" viewBox="0 0 1383.000000 3464.000000"
 preserveAspectRatio="xMidYMid meet">

<g transform="translate(0.000000,3464.000000) scale(0.100000,-0.100000)"
fill="#000000" stroke="none">
<path d="M7405 34340 c-6 -10 -13 -317 -30 -1375 -3 -165 -7 -419 -10 -565 -3
-146 -7 -398 -10 -560 -9 -532 -15 -881 -20 -1135 -3 -137 -7 -396 -10 -575
-3 -179 -7 -431 -10 -560 -9 -446 -17 -956 -19 -1120 l-1 -164 120 -4 120 -3
1 148 c1 179 14 1008 19 1223 2 85 7 319 10 520 3 201 8 462 10 580 2 118 7
370 10 560 3 190 7 446 10 570 3 124 7 374 10 555 3 182 7 434 10 560 2 127 7
412 10 635 3 223 8 468 10 545 3 78 0 147 -5 155 -7 12 -33 15 -115 16 -58 1
-108 -2 -110 -6z"/>
<path d="M7239 28276 c-2 -2 -47 -7 -99 -10 -114 -7 -156 -12 -235 -25 -33 -6
-91 -15 -129 -21 -37 -6 -72 -13 -77 -16 -5 -3 -30 -9 -57 -13 -294 -51 -855
-318 -1116 -531 -23 -19 -62 -51 -86 -70 -138 -113 -324 -300 -432 -435 -66
-84 -149 -193 -163 -216 -5 -9 -39 -63 -73 -120 -298 -488 -452 -1069 -437
-1649 6 -251 49 -555 98 -695 8 -22 17 -58 21 -80 12 -67 113 -321 197 -495
74 -152 137 -262 210 -365 16 -22 43 -61 60 -87 17 -27 35 -48 40 -48 4 0 15
-13 24 -30 8 -16 30 -45 48 -63 17 -19 58 -63 90 -99 53 -60 151 -159 237
-238 51 -47 195 -160 270 -213 130 -91 388 -236 515 -289 320 -133 586 -202
913 -239 87 -10 115 -17 122 -29 5 -10 7 -66 5 -126 -2 -60 -7 -298 -10 -529
-3 -231 -8 -505 -10 -610 -2 -104 -7 -338 -10 -520 -3 -181 -8 -433 -10 -560
-3 -126 -7 -426 -10 -665 -3 -239 -7 -538 -10 -665 -2 -126 -7 -372 -10 -545
-6 -373 -13 -774 -20 -1140 -3 -146 -7 -407 -10 -580 -5 -305 -9 -550 -20
-1115 -3 -148 -7 -459 -10 -690 -3 -231 -7 -517 -10 -635 -2 -118 -7 -372 -10
-565 -8 -559 -16 -789 -26 -801 -6 -7 -54 -12 -127 -13 -222 -3 -597 -36 -802
-71 -240 -41 -281 -49 -520 -105 -205 -48 -505 -145 -770 -250 -205 -81 -608
-273 -726 -345 -38 -24 -98 -60 -134 -80 -95 -54 -242 -150 -426 -277 -22 -16
-76 -56 -119 -88 -42 -33 -92 -71 -110 -85 -32 -24 -112 -90 -146 -120 -10 -8
-39 -33 -64 -55 -165 -140 -445 -420 -610 -609 -83 -96 -267 -326 -310 -389
-20 -29 -58 -83 -86 -122 -53 -73 -120 -173 -129 -190 -3 -5 -21 -35 -41 -65
-20 -30 -48 -77 -62 -103 -15 -26 -33 -58 -41 -70 -66 -103 -259 -489 -330
-662 -32 -77 -64 -153 -71 -170 -7 -16 -26 -68 -43 -115 -182 -506 -297 -1011
-337 -1490 -3 -36 -8 -76 -10 -90 -16 -93 -24 -668 -11 -845 4 -44 9 -118 12
-165 3 -47 12 -141 20 -210 15 -120 19 -147 43 -290 6 -36 15 -90 20 -120 5
-30 17 -89 26 -130 9 -41 21 -95 26 -120 41 -207 199 -697 302 -940 115 -269
210 -470 265 -562 27 -46 62 -108 77 -138 58 -116 367 -580 439 -660 12 -14
30 -37 40 -53 9 -15 28 -40 41 -55 13 -15 42 -49 65 -77 125 -154 210 -245
415 -450 105 -104 214 -210 244 -235 29 -25 63 -55 75 -66 27 -28 300 -242
407 -320 105 -76 338 -231 379 -250 8 -5 38 -22 65 -39 28 -18 77 -47 110 -65
33 -18 74 -41 90 -50 286 -159 655 -318 997 -431 194 -64 614 -173 758 -198
156 -27 309 -50 360 -56 30 -3 82 -10 115 -15 33 -5 98 -11 145 -15 47 -3 110
-8 140 -11 136 -13 689 -12 810 1 69 7 128 11 131 9 4 -2 42 1 85 7 44 6 93
12 109 14 103 10 218 28 267 41 31 8 60 13 65 12 8 -3 85 12 173 34 25 6 68
14 95 19 28 4 68 15 90 23 22 8 51 15 65 16 14 0 57 11 95 25 39 13 80 25 93
25 12 0 57 13 100 29 42 17 104 37 138 45 33 9 147 52 253 96 106 44 194 80
197 80 4 0 183 83 418 195 55 25 124 64 155 84 31 21 88 54 127 74 39 20 84
47 100 60 16 13 49 34 74 47 25 12 60 36 78 51 18 16 52 38 75 50 23 12 59 37
80 55 20 19 42 34 47 34 5 0 27 15 47 33 21 18 55 44 76 56 20 12 37 26 37 31
0 5 17 19 38 31 20 13 49 35 63 49 15 14 50 43 78 65 29 22 66 54 84 70 18 17
66 59 106 95 95 85 306 294 401 400 41 45 86 95 100 110 88 98 330 404 330
418 0 5 7 15 15 22 33 27 297 440 387 605 83 153 256 509 288 595 7 19 21 53
30 75 73 168 167 451 237 710 45 165 119 518 128 610 3 22 9 69 15 105 33 216
52 481 55 780 3 267 -1 382 -20 610 -11 126 -13 141 -30 265 -10 66 -18 131
-20 145 -1 14 -7 52 -14 85 -7 33 -17 85 -22 115 -5 30 -15 75 -21 100 -6 25
-14 68 -19 95 -4 28 -15 68 -23 90 -8 22 -15 51 -16 65 0 14 -11 57 -25 95
-13 39 -25 80 -25 92 0 12 -10 48 -22 80 -12 32 -36 105 -54 163 -72 236 -387
940 -478 1067 -18 26 -47 75 -63 108 -17 34 -45 81 -64 107 -19 25 -47 67 -62
94 -37 65 -89 141 -125 184 -16 19 -36 49 -45 65 -8 17 -25 39 -37 50 -12 11
-31 37 -41 57 -10 20 -25 41 -32 45 -7 4 -24 24 -37 43 -13 19 -33 44 -44 56
-12 12 -41 47 -66 78 -25 31 -58 72 -75 89 -16 18 -59 66 -95 106 -36 41 -117
126 -180 190 -105 106 -161 159 -306 291 -65 60 -370 303 -454 363 -451 321
-834 530 -1325 725 -248 98 -568 200 -795 252 -264 61 -296 68 -345 74 -27 3
-88 13 -135 21 -47 8 -125 20 -174 25 -49 6 -96 16 -104 23 -15 12 -14 245 3
1047 7 310 15 766 20 1140 3 179 7 489 10 690 3 201 7 466 10 590 3 124 7 374
10 555 3 182 7 447 10 590 6 334 14 749 20 1140 3 171 7 418 10 550 3 132 8
400 10 595 6 503 15 1078 20 1260 9 346 20 1102 20 1360 l0 274 -25 6 c-14 3
-38 4 -54 0 l-30 -6 -2 -149 c-11 -724 -15 -958 -19 -1140 -7 -289 -14 -703
-20 -1125 -13 -937 -16 -1099 -20 -1290 -3 -113 -7 -358 -10 -545 -3 -187 -7
-455 -10 -595 -5 -243 -8 -440 -20 -1135 -3 -170 -7 -404 -10 -520 -2 -115 -7
-381 -10 -590 -9 -654 -15 -1072 -20 -1295 -3 -118 -7 -377 -10 -575 -7 -496
-15 -787 -21 -808 -5 -17 -14 -18 -112 -11 -59 4 -120 8 -137 8 -60 3 -58 -9
-51 320 4 165 8 427 11 581 3 154 7 395 10 535 3 140 7 435 10 655 3 220 7
522 10 670 3 149 7 410 10 580 3 171 7 429 10 575 3 146 7 398 10 560 3 162 7
414 10 560 3 146 7 387 10 535 3 149 7 403 10 565 3 162 8 464 10 670 5 408
13 885 20 1215 2 116 7 392 10 615 3 223 8 455 10 515 9 242 7 585 -3 598 -7
8 -47 13 -114 15 -64 2 -106 8 -111 15 -4 7 -5 125 -2 262 3 138 7 403 10 590
3 187 8 435 10 550 14 692 17 1133 6 1139 -6 4 -11 3 -11 -3 0 -14 -39 -69
-77 -108 -17 -18 -59 -46 -94 -63 -54 -25 -76 -30 -141 -30 -91 0 -142 17
-214 71 -209 158 -177 476 60 596 44 22 65 26 146 27 85 1 101 -2 150 -27 75
-38 118 -79 156 -150 l31 -59 6 43 c4 24 9 190 12 369 3 179 8 412 10 519 2
107 2 198 -1 203 -3 5 -18 -10 -34 -34 -47 -72 -87 -108 -158 -140 -54 -25
-80 -31 -138 -32 -316 -1 -473 381 -247 601 58 55 103 79 179 91 95 16 170 2
244 -47 75 -49 88 -63 125 -131 34 -65 35 -65 36 -30 4 108 7 280 14 660 4
234 8 486 10 560 10 385 9 599 -4 614 -13 16 -24 20 -32 12z m-45 -16132 c44
-53 119 -210 146 -305 10 -38 30 -106 44 -151 32 -108 83 -314 99 -408 3 -14
14 -70 25 -125 11 -55 27 -149 36 -210 9 -60 21 -132 26 -160 5 -27 12 -79 15
-115 3 -36 11 -87 16 -115 13 -66 86 -771 94 -900 3 -55 8 -111 10 -125 2 -14
7 -61 10 -105 21 -335 35 -585 40 -730 4 -93 8 -192 10 -219 19 -253 33 -1741
20 -2176 -2 -85 -7 -263 -10 -395 -3 -132 -8 -267 -10 -300 -2 -33 -7 -127
-10 -210 -3 -82 -8 -190 -11 -240 -10 -192 -13 -265 -19 -395 -8 -175 -85
-1149 -100 -1270 -4 -29 -20 -176 -30 -283 -2 -15 -8 -67 -14 -115 -6 -48 -16
-127 -22 -177 -73 -619 -202 -1314 -324 -1735 -77 -267 -176 -493 -254 -577
-37 -42 -70 -53 -97 -35 -24 17 -94 122 -124 187 -52 114 -143 417 -185 620
-9 44 -23 107 -30 140 -13 57 -22 107 -45 245 -6 33 -15 86 -20 118 -6 31 -15
93 -21 137 -5 44 -19 152 -30 240 -12 88 -22 171 -24 185 -2 14 -8 68 -14 120
-11 92 -14 124 -26 275 -3 39 -10 113 -15 165 -6 52 -12 138 -15 190 -3 52 -7
106 -10 120 -2 14 -7 72 -10 130 -3 58 -8 132 -10 165 -10 162 -19 335 -31
610 -3 83 -7 173 -9 200 -23 444 -23 2269 0 2620 2 33 7 123 10 200 8 191 28
605 41 845 6 121 71 940 84 1075 18 183 40 392 49 475 19 170 31 276 36 305 2
17 14 98 25 180 128 899 275 1529 435 1863 86 179 141 243 191 220 12 -6 38
-30 58 -54z"/>
<path d="M7195 3030 c-27 -8 -114 -25 -245 -50 -361 -69 -338 -63 -343 -89 -3
-14 1 -48 8 -75 7 -28 15 -67 17 -86 5 -53 26 -53 248 -5 36 8 97 19 135 25
39 7 88 16 110 21 22 5 56 11 75 14 19 3 52 11 73 17 l38 11 -6 46 c-8 63 -26
143 -35 161 -9 18 -34 21 -75 10z"/>
<path d="M7120 2513 c-36 -8 -90 -19 -120 -25 -30 -5 -84 -16 -120 -23 -36 -8
-96 -19 -135 -26 -124 -20 -150 -31 -149 -59 2 -45 25 -162 35 -182 12 -21 31
-21 159 7 36 7 94 19 130 25 36 6 94 17 130 25 36 7 92 18 125 25 132 25 130
24 127 45 -6 45 -21 125 -32 164 -10 39 -13 41 -48 40 -20 -1 -66 -8 -102 -16z"/>
<path d="M7539 28208 c0 -35 -2 -106 -4 -158 -2 -52 -6 -286 -9 -520 -4 -234
-9 -506 -11 -605 -2 -99 -7 -335 -10 -525 -3 -190 -7 -448 -10 -575 -3 -126
-7 -383 -10 -570 -3 -187 -7 -450 -10 -585 -5 -257 -11 -597 -20 -1215 -3
-203 -8 -442 -10 -530 -4 -162 -8 -625 -6 -679 l1 -29 142 7 c78 3 143 8 144
9 4 4 12 379 29 1402 3 176 7 437 10 580 3 143 7 433 11 645 3 212 9 389 14
393 4 5 31 7 61 5 l54 -3 3 -112 c1 -62 6 -113 10 -113 4 0 18 17 32 38 105
157 298 210 460 126 63 -33 101 -70 137 -134 83 -148 62 -314 -54 -425 -60
-58 -109 -84 -182 -96 -151 -24 -294 46 -369 179 l-30 54 -6 -49 c-3 -26 -8
-248 -11 -493 -3 -245 -7 -542 -10 -660 -2 -118 -7 -377 -10 -575 -3 -198 -8
-439 -10 -536 -4 -145 -2 -179 9 -188 12 -10 35 -8 108 8 297 64 552 159 827
307 159 85 219 125 465 310 56 42 207 185 291 275 38 41 76 81 84 89 20 20
158 197 197 252 66 93 151 240 225 388 244 487 347 1017 306 1570 -15 198 -55
434 -97 565 -10 33 -26 89 -35 125 -50 198 -247 592 -418 837 -214 307 -540
616 -857 812 -233 145 -415 229 -690 322 -173 57 -476 119 -662 134 l-78 6 -1
-63z"/>
</g>
</svg>
