<svg xmlns="http://www.w3.org/2000/svg" width="2397" height="1147" viewBox="0 0 2397 1147" version="1.1"><path d="M 616.220 33.280 C 615.683 33.951, 608.160 49.800, 599.502 68.500 C 583.010 104.123, 580.333 109.867, 572.241 127 C 569.514 132.775, 561.763 149.425, 555.017 164 C 538.107 200.534, 529.896 218.094, 529.368 218.856 C 529.233 219.052, 527.182 218.494, 524.811 217.617 C 515.391 214.132, 501.831 211.918, 489.960 211.926 C 451.086 211.954, 416.695 232.506, 397.800 267 C 393.491 274.867, 388.484 289.148, 386.931 298 C 385.380 306.844, 385.400 324.881, 386.970 334 C 392.201 364.368, 411.367 391.210, 439.469 407.525 C 441.096 408.470, 440.901 409.256, 436.983 417.525 C 434.644 422.461, 431.186 429.875, 429.299 434 C 427.411 438.125, 425.276 442.625, 424.554 444 C 423.833 445.375, 416.159 461.800, 407.502 480.500 C 398.844 499.200, 390.234 517.760, 388.367 521.744 C 386.501 525.728, 383.451 532.253, 381.590 536.244 C 379.729 540.235, 375.639 548.900, 372.503 555.500 C 369.366 562.100, 366.098 569.300, 365.241 571.500 C 364.385 573.700, 363.355 575.950, 362.954 576.500 C 362.553 577.050, 358.064 586.500, 352.979 597.500 C 347.894 608.500, 342.213 620.760, 340.354 624.744 C 338.495 628.728, 335.453 635.253, 333.593 639.244 C 331.734 643.235, 327.465 652.271, 324.106 659.325 C 320.748 666.379, 318 672.334, 318 672.558 C 318 672.782, 316.019 677.136, 313.598 682.233 C 311.176 687.330, 307.495 695.185, 305.417 699.688 C 302.375 706.279, 301.332 707.713, 300.069 707.038 C 299.206 706.577, 293.100 704.339, 286.500 702.065 C 260.088 692.966, 229.716 688.796, 204.718 690.838 C 154.513 694.939, 109.784 714.829, 74.734 748.637 C 43.521 778.744, 22.890 816.750, 14.280 860 C 11.807 872.424, 11.592 875.453, 11.581 898 C 11.571 919.085, 11.873 924.061, 13.744 933.698 C 20.125 966.565, 30.876 992.489, 48.911 1018.500 C 59.551 1033.847, 82.152 1056.845, 95.588 1066 C 128.171 1088.199, 156.450 1099.701, 190.265 1104.508 C 203.552 1106.397, 233.410 1106.403, 246.663 1104.519 C 288.644 1098.550, 329.659 1079.027, 359.812 1050.659 C 376.865 1034.615, 390.254 1017.494, 400.448 998.695 C 403.074 993.852, 405.035 989.702, 404.806 989.473 C 404.577 989.244, 402.643 992.307, 400.508 996.278 C 384.035 1026.923, 359.037 1053.956, 330 1072.528 C 313.080 1083.351, 289.859 1093.447, 270.500 1098.399 C 249.830 1103.686, 243.105 1104.455, 218 1104.403 C 196.723 1104.358, 193.202 1104.100, 180.778 1101.676 C 154.068 1096.465, 126.516 1085.195, 104.494 1070.471 C 26.539 1018.351, -6.642 921.573, 22.992 832.756 C 43.966 769.895, 94.344 720.621, 157.603 701.095 C 202.964 687.093, 253.394 689.305, 296.738 707.196 C 299.618 708.385, 302.146 709.165, 302.354 708.929 C 302.563 708.693, 322.435 666.200, 346.515 614.500 C 427.990 439.571, 441.933 409.734, 442.435 409.232 C 443.108 408.558, 449 411.042, 449 411.999 C 449 412.415, 448.319 414.386, 447.487 416.378 C 445.605 420.882, 446.370 421.137, 448.601 416.750 C 449.511 414.962, 450.388 413.346, 450.552 413.158 C 450.716 412.970, 452.460 413.399, 454.428 414.110 C 457.357 415.169, 457.892 415.776, 457.376 417.452 C 455.906 422.224, 318.775 715.523, 317.691 716.212 C 316.848 716.748, 316.938 716.972, 318 716.978 C 318.974 716.984, 322.550 710.412, 328.193 698.243 C 404.929 532.797, 459.740 416.053, 460.691 416.029 C 461.346 416.013, 462.126 416.395, 462.424 416.877 C 462.723 417.360, 448.624 448.523, 431.095 486.127 C 340.432 680.619, 323 718.159, 323 718.907 C 323 719.355, 325.926 721.614, 329.502 723.926 C 354.701 740.223, 374.922 760.209, 391.292 785 C 397.060 793.735, 402.522 804.068, 410.850 822 C 412.011 824.500, 412.011 824.500, 411.470 822 C 410.454 817.305, 397.670 792.690, 391.296 783.158 C 379.732 765.861, 364.921 749.476, 349.996 737.469 C 341.799 730.875, 340.716 730.088, 330.680 723.440 C 326.928 720.956, 324.027 718.603, 324.232 718.211 C 324.438 717.820, 325.392 715.700, 326.353 713.500 C 327.314 711.300, 329.395 706.800, 330.978 703.500 C 332.561 700.200, 335.514 693.900, 337.540 689.500 C 339.565 685.100, 343.018 677.675, 345.211 673 C 351.106 660.433, 355.821 650.315, 359.190 643 C 360.837 639.425, 363.455 633.800, 365.009 630.500 C 366.562 627.200, 369.708 620.450, 372 615.500 C 374.292 610.550, 377.442 603.800, 379 600.500 C 382.865 592.314, 392.166 572.368, 399.985 555.500 C 402.279 550.550, 405.212 544.250, 406.502 541.500 C 408.831 536.537, 414.013 525.398, 420.691 511 C 422.604 506.875, 425.449 500.800, 427.013 497.500 C 428.577 494.200, 431.509 487.900, 433.528 483.500 C 438.238 473.240, 441.570 466.096, 447.898 452.690 C 450.704 446.745, 453 441.689, 453 441.454 C 453 441.220, 455.540 435.805, 458.644 429.422 C 464.288 417.815, 464.288 417.815, 467.394 418.447 C 474.146 419.821, 500.886 420.225, 507.656 419.056 C 534.670 414.393, 561.167 397.212, 576.161 374.639 C 583.402 363.737, 591.168 345.597, 590.928 340.145 C 590.888 339.240, 589.615 342.325, 588.099 347 C 576.157 383.831, 545.550 410.799, 508 417.577 C 494.413 420.029, 466.601 418.729, 465.394 415.585 C 464.847 414.159, 499.541 339.874, 500.368 340.701 C 500.715 341.049, 501.002 340.471, 501.004 339.417 C 501.006 338.363, 501.899 336.038, 502.989 334.250 C 504.079 332.462, 504.775 331, 504.536 331 C 504.297 331, 504.785 329.366, 505.619 327.368 C 507.202 323.581, 506.381 321.248, 503.817 322.248 C 503.093 322.531, 492.874 343.466, 481.109 368.772 C 459.718 414.783, 459.718 414.783, 455.359 413.297 C 452.962 412.480, 451 411.428, 451 410.959 C 451 410.300, 527.317 245.858, 535.563 228.750 C 536.557 226.688, 537.679 225, 538.057 225 C 540.374 225, 555.765 236.539, 562.579 243.384 C 576.156 257.023, 584.827 272.203, 589.661 290.794 C 591.661 298.483, 592.218 303.201, 592.342 313.500 C 592.429 320.650, 592.167 329.200, 591.759 332.500 C 591.139 337.523, 591.213 338.093, 592.213 336 C 592.992 334.369, 593.411 327.591, 593.418 316.500 C 593.428 301.025, 593.184 298.618, 590.695 289.662 C 583.659 264.346, 567.968 242.462, 547.250 229.073 C 542.712 226.140, 539 223.629, 539 223.493 C 539 223.356, 539.675 221.629, 540.500 219.654 C 542.791 214.171, 542.201 213.934, 539.445 219.230 C 536.982 223.959, 536.982 223.959, 533.545 222.320 C 530.182 220.717, 530.136 220.612, 531.444 217.590 C 535.081 209.183, 616.329 35.396, 616.930 34.737 C 617.806 33.776, 624 35.869, 624 37.126 C 624 37.638, 622.621 40.790, 620.935 44.130 C 619.249 47.470, 618.084 50.417, 618.346 50.679 C 618.891 51.224, 625 38.782, 625 37.127 C 625 36.530, 623.244 35.145, 621.098 34.050 C 618.087 32.514, 616.973 32.338, 616.220 33.280 M 474.500 214.030 C 438.832 219.538, 407.466 244.600, 394.085 278.287 C 388.799 291.594, 386.718 304.416, 387.316 320 C 388.367 347.383, 398.341 370.240, 417.581 389.355 C 424.640 396.369, 439.062 407, 441.518 407 C 442.118 407, 450.195 390.688, 459.465 370.750 C 468.736 350.813, 476.920 333.291, 477.653 331.813 C 478.986 329.126, 478.986 329.126, 476.243 330.557 C 466.342 335.722, 455.106 325.861, 459.342 315.724 C 461.130 311.445, 466.141 308.009, 470.602 308.004 C 474.913 307.999, 480.295 311.850, 481.457 315.771 C 481.983 317.547, 482.706 319, 483.064 319 C 483.422 319, 485.639 314.837, 487.990 309.750 C 499.893 283.998, 499.206 285.742, 496.778 287.443 C 495.556 288.299, 492.624 289, 490.263 289 C 486.770 289, 485.275 288.363, 482.235 285.577 C 479.013 282.624, 478.500 281.553, 478.500 277.783 C 478.500 266.340, 490.923 261.077, 498.961 269.115 C 500.969 271.122, 501.954 273.061, 501.864 274.827 C 501.747 277.130, 501.668 277.193, 501.299 275.286 C 501.063 274.069, 499.594 271.706, 498.034 270.036 C 495.753 267.595, 494.382 267, 491.033 267 C 483.372 267, 480.080 270.082, 480.032 277.298 C 480.006 281.209, 480.483 282.543, 482.611 284.516 C 489.314 290.728, 496.738 288.393, 502.274 278.331 C 504.220 274.794, 529 221.906, 529 221.290 C 529 220.513, 521.628 217.842, 514.141 215.908 C 505.259 213.613, 483.789 212.596, 474.500 214.030 M 527.613 227.250 C 523.548 236.285, 504.291 277.351, 502.642 280.500 C 501.777 282.150, 498.976 288.225, 496.415 294 C 493.855 299.775, 489.392 309.450, 486.497 315.500 C 474.923 339.689, 443.850 407.180, 444.165 407.446 C 445.797 408.825, 449.479 410.104, 449.771 409.393 C 449.972 408.902, 469.400 367.325, 492.944 317 C 535.113 226.863, 535.722 225.474, 533.765 223.750 C 530.815 221.152, 530.199 221.503, 527.613 227.250 M 294.600 721.579 C 286.256 727.950, 270.711 747.987, 256.259 771 C 242.453 792.983, 216.722 839.262, 221.508 833.500 C 222.422 832.400, 224.188 829.475, 225.434 827 C 229.773 818.377, 239.986 800.030, 246.308 789.500 C 248.289 786.200, 251.078 781.475, 252.506 779 C 257.271 770.739, 272.624 747.892, 277.901 741.209 C 283.496 734.123, 295.647 721.720, 298.383 720.304 C 300.776 719.065, 301.410 719.039, 302.117 720.156 C 306.552 727.153, 294.756 776.455, 278.469 819 C 268.627 844.711, 263.165 858.264, 255.498 876 C 253.478 880.675, 250.563 887.425, 249.022 891 C 244.215 902.151, 237.281 916.639, 225.093 941 C 195.614 999.922, 169.971 1041.917, 149.070 1065.500 C 142.912 1072.448, 135.569 1077.903, 134.209 1076.542 C 132.955 1075.286, 133.604 1061.803, 135.429 1051.184 C 136.404 1045.510, 136.978 1040.644, 136.704 1040.371 C 136.431 1040.098, 135.383 1044.290, 134.375 1049.687 C 132.558 1059.422, 131.853 1076.179, 133.203 1077.534 C 136.290 1080.632, 150.104 1067.933, 163.156 1050 C 215.857 977.591, 289.909 814.021, 302.451 742.317 C 305.006 727.715, 304.269 718, 300.609 718 C 299.882 718, 297.178 719.611, 294.600 721.579 M 735.479 822.200 C 735.206 822.915, 735.099 858.375, 735.242 901 C 735.500 978.500, 735.500 978.500, 741.500 978.500 C 747.500 978.500, 747.500 978.500, 747.500 900 C 747.500 821.500, 747.500 821.500, 741.738 821.200 C 737.704 820.990, 735.827 821.289, 735.479 822.200 M 970.460 822.250 C 970.198 822.938, 970.099 858.375, 970.242 901 C 970.500 978.500, 970.500 978.500, 977.500 978.500 C 984.500 978.500, 984.500 978.500, 984.762 940.581 C 985.024 902.662, 985.024 902.662, 993.762 911.087 C 998.568 915.721, 1012.398 928.960, 1024.495 940.506 C 1036.592 952.053, 1050.614 965.438, 1055.655 970.250 C 1064.820 979, 1064.820 979, 1072.351 979 C 1076.493 979, 1080.130 978.599, 1080.432 978.109 C 1080.735 977.620, 1073.043 969.632, 1063.339 960.359 C 1053.634 951.087, 1044.065 941.925, 1042.073 940 C 1040.081 938.075, 1030.011 928.409, 1019.696 918.520 C 1009.381 908.632, 1001.067 899.992, 1001.221 899.322 C 1001.374 898.652, 1006.225 893.226, 1012 887.265 C 1024 874.877, 1043.901 854.219, 1061.759 835.611 C 1068.501 828.585, 1073.762 822.424, 1073.450 821.919 C 1073.137 821.413, 1069.578 821, 1065.540 821 C 1057.446 821, 1063.836 815.112, 997.171 884 C 985.074 896.500, 985.074 896.500, 985.037 860.332 C 985.017 840.439, 984.727 823.452, 984.393 822.582 C 983.617 820.561, 971.218 820.265, 970.460 822.250 M 2031.479 822.200 C 2031.206 822.915, 2031.099 858.375, 2031.242 901 C 2031.500 978.500, 2031.500 978.500, 2037.500 978.500 C 2043.500 978.500, 2043.500 978.500, 2043.500 900 C 2043.500 821.500, 2043.500 821.500, 2037.738 821.200 C 2033.704 820.990, 2031.827 821.289, 2031.479 822.200 M 736 900 C 736 978, 736 978, 741.500 978 C 747 978, 747 978, 747 900 C 747 822, 747 822, 741.500 822 C 736 822, 736 822, 736 900 M 972 900 C 972 978, 972 978, 977.488 978 C 982.977 978, 982.977 978, 983.238 938.804 C 983.500 899.609, 983.500 899.609, 1024.488 938.804 C 1065.475 978, 1065.475 978, 1072.952 978 C 1079.352 978, 1080.218 977.801, 1078.964 976.619 C 1059.520 958.277, 999.424 900.579, 999.224 900.061 C 998.960 899.376, 1009.514 888.181, 1053.257 842.750 C 1073.236 822, 1073.236 822, 1065.868 822.003 C 1058.500 822.007, 1058.500 822.007, 1021.500 860.485 C 1001.150 881.647, 984.163 898.971, 983.750 898.981 C 983.337 898.992, 983 881.675, 983 860.500 C 983 822, 983 822, 977.500 822 C 972 822, 972 822, 972 900 M 2032 900 C 2032 978, 2032 978, 2037.500 978 C 2043 978, 2043 978, 2043 900 C 2043 822, 2043 822, 2037.500 822 C 2032 822, 2032 822, 2032 900 M 1229.606 841.537 C 1223.398 847.745, 1223 848.967, 1223 861.816 C 1223 873.944, 1223 873.944, 1209.250 874.222 C 1195.500 874.500, 1195.500 874.500, 1195.198 879.750 C 1194.895 885, 1194.895 885, 1208.906 885 C 1222.917 885, 1222.917 885, 1223.208 926.329 C 1223.500 967.658, 1223.500 967.658, 1226.211 971.211 C 1227.702 973.165, 1231.077 976.055, 1233.711 977.632 C 1238.122 980.274, 1239.249 980.494, 1248 980.421 C 1256.075 980.355, 1258.363 979.944, 1263.250 977.684 C 1269 975.025, 1269 975.025, 1269 969.396 C 1269 963.020, 1269.921 963.285, 1258.540 966.380 C 1251.204 968.374, 1245.982 968.437, 1241.548 966.585 C 1235.520 964.066, 1235.532 964.147, 1235.167 922.778 C 1234.834 885.056, 1234.834 885.056, 1249.167 884.778 C 1263.500 884.500, 1263.500 884.500, 1263.500 879.500 C 1263.500 874.500, 1263.500 874.500, 1249.274 874.223 C 1235.048 873.945, 1235.048 873.945, 1234.774 857.235 C 1234.536 842.727, 1234.285 840.484, 1232.871 840.213 C 1231.976 840.041, 1230.506 840.637, 1229.606 841.537 M 2088.606 841.537 C 2082.398 847.745, 2082 848.967, 2082 861.816 C 2082 873.944, 2082 873.944, 2068.250 874.222 C 2054.500 874.500, 2054.500 874.500, 2054.198 879.750 C 2053.895 885, 2053.895 885, 2067.948 885 C 2082 885, 2082 885, 2082.016 925.250 C 2082.033 965.197, 2082.050 965.530, 2084.295 969.500 C 2087.101 974.460, 2094.913 979.714, 2100.793 980.596 C 2107.660 981.626, 2116.346 980.446, 2122.441 977.655 C 2128 975.111, 2128 975.111, 2128 969.555 C 2128 963.163, 2128.111 963.207, 2119.161 966.013 C 2111.343 968.464, 2104.600 968.546, 2100 966.248 C 2094.554 963.528, 2094.173 960.568, 2094.080 920.277 C 2094 885.055, 2094 885.055, 2108.250 884.777 C 2122.500 884.500, 2122.500 884.500, 2122.500 879.500 C 2122.500 874.500, 2122.500 874.500, 2108.274 874.223 C 2094.048 873.945, 2094.048 873.945, 2093.774 857.235 C 2093.536 842.727, 2093.285 840.484, 2091.871 840.213 C 2090.976 840.041, 2089.506 840.637, 2088.606 841.537 M 1227.546 845.644 C 1224 850.288, 1224 850.288, 1224 862.644 C 1224 875, 1224 875, 1210 875 C 1196 875, 1196 875, 1196 879.500 C 1196 884, 1196 884, 1210 884 C 1224 884, 1224 884, 1224 924.032 C 1224 968.306, 1223.979 968.140, 1230.355 973.739 C 1237.807 980.282, 1248.187 981.321, 1261.750 976.882 C 1268 974.837, 1268 974.837, 1268 969.918 C 1268 967.213, 1267.662 965.015, 1267.250 965.033 C 1266.838 965.051, 1264.025 965.936, 1261 967 C 1254.842 969.166, 1245.923 969.566, 1241.119 967.892 C 1234.667 965.642, 1234.535 964.776, 1234.186 922.250 C 1233.872 884, 1233.872 884, 1248.436 884 C 1263 884, 1263 884, 1263 879.500 C 1263 875, 1263 875, 1248.500 875 C 1234 875, 1234 875, 1234 858 C 1234 838.606, 1233.561 837.766, 1227.546 845.644 M 2086.620 845.418 C 2083 849.837, 2083 849.837, 2083 862.418 C 2083 875, 2083 875, 2069 875 C 2055 875, 2055 875, 2055 879.500 C 2055 884, 2055 884, 2069 884 C 2083 884, 2083 884, 2083 924.032 C 2083 968.306, 2082.979 968.140, 2089.355 973.739 C 2094.918 978.623, 2102.775 980.553, 2111.493 979.178 C 2115.347 978.569, 2120.412 977.313, 2122.750 976.384 C 2126.934 974.723, 2127 974.621, 2127 969.848 C 2127 967.182, 2126.887 965.006, 2126.750 965.013 C 2126.613 965.020, 2123.647 965.920, 2120.161 967.013 C 2113.118 969.221, 2104.958 969.579, 2100.119 967.892 C 2093.667 965.642, 2093.535 964.776, 2093.186 922.250 C 2092.872 884, 2092.872 884, 2107.436 884 C 2122 884, 2122 884, 2122 879.500 C 2122 875, 2122 875, 2107.500 875 C 2093 875, 2093 875, 2093 858 C 2093 838.697, 2092.667 838.040, 2086.620 845.418 M 1129 873.706 C 1121.319 876.350, 1112.437 883.994, 1105.153 894.229 C 1103.694 896.279, 1102.177 897.967, 1101.782 897.979 C 1101.387 897.990, 1100.937 892.712, 1100.782 886.250 C 1100.500 874.500, 1100.500 874.500, 1096.595 874.180 C 1094.448 874.005, 1091.631 874.127, 1090.336 874.452 C 1087.982 875.043, 1087.982 875.043, 1088.241 926.771 C 1088.500 978.500, 1088.500 978.500, 1094.500 978.500 C 1100.500 978.500, 1100.500 978.500, 1101 946 C 1101.497 913.693, 1101.515 913.476, 1103.946 909.500 C 1107.870 903.085, 1114.618 895.137, 1119.746 890.890 C 1129.092 883.150, 1136.730 883.461, 1147.629 892.027 C 1153.920 896.971, 1153.920 896.971, 1156.335 893.736 C 1159.819 889.066, 1161.073 886.330, 1160.420 884.822 C 1159.466 882.618, 1150.840 876.747, 1145 874.327 C 1138.631 871.687, 1135.249 871.556, 1129 873.706 M 1130.324 874.439 C 1128.027 875.158, 1124.629 876.684, 1122.771 877.832 C 1118.485 880.481, 1108.426 890.989, 1103.943 897.500 C 1100.500 902.500, 1100.500 902.500, 1100.222 888.750 C 1099.944 875, 1099.944 875, 1094.972 875 C 1090 875, 1090 875, 1090 926.500 C 1090 978, 1090 978, 1095 978 C 1100 978, 1100 978, 1100 945.742 C 1100 913.483, 1100 913.483, 1104.090 907.224 C 1113.484 892.846, 1124.390 884.028, 1132.800 884.009 C 1137.703 883.999, 1141.257 885.619, 1148.771 891.292 C 1151.676 893.486, 1154.200 895.105, 1154.380 894.890 C 1154.560 894.676, 1155.922 892.395, 1157.406 889.822 C 1160.105 885.144, 1160.105 885.144, 1154.617 881.001 C 1148.852 876.648, 1140.527 872.954, 1136.739 873.067 C 1135.508 873.104, 1132.621 873.721, 1130.324 874.439 M 1923.704 874.705 C 1928.908 875.101, 1928.908 875.101, 1929.204 911.801 C 1929.486 946.763, 1929.600 948.717, 1931.623 953.089 C 1934.194 958.648, 1939.328 963.964, 1944.597 966.522 C 1949.992 969.141, 1961.248 969.651, 1968.314 967.597 C 1974.478 965.805, 1982.914 958.892, 1988.057 951.418 C 1991 947.140, 1991 947.140, 1991 911.070 C 1991 875, 1991 875, 1996 875 C 2001 875, 2001 875, 2001 926.500 C 2001 978, 2001 978, 1996 978 C 1991 978, 1991 978, 1991 969.500 C 1991 964.825, 1990.662 961.003, 1990.250 961.007 C 1989.838 961.011, 1988.422 962.596, 1987.105 964.531 C 1983.620 969.647, 1978.361 973.945, 1972.046 976.838 C 1964.469 980.309, 1950.355 980.447, 1941.853 977.134 C 1935.524 974.667, 1927.990 968.529, 1924.492 962.987 C 1919.174 954.562, 1918.755 951.221, 1918.041 911.500 C 1917.376 874.500, 1917.376 874.500, 1917.194 908.500 C 1917.094 927.200, 1917.452 945.200, 1917.990 948.500 C 1919.120 955.438, 1923.797 965.049, 1928.346 969.783 C 1930.081 971.588, 1934.650 974.727, 1938.500 976.757 C 1945.327 980.357, 1945.773 980.449, 1956.500 980.474 C 1966.329 980.497, 1968.099 980.219, 1973.126 977.862 C 1976.550 976.256, 1980.854 973.003, 1984.126 969.545 C 1989.500 963.866, 1989.500 963.866, 1990 971.183 C 1990.500 978.500, 1990.500 978.500, 1996.500 978.500 C 2002.500 978.500, 2002.500 978.500, 2002.759 926.771 C 2003.018 875.043, 2003.018 875.043, 2000.664 874.452 C 1999.369 874.127, 1996.552 874.005, 1994.405 874.180 C 1990.500 874.500, 1990.500 874.500, 1990 911 C 1989.500 947.500, 1989.500 947.500, 1986.345 952 C 1979.280 962.078, 1971.844 966.623, 1960.718 967.662 C 1947.929 968.856, 1937.669 963.359, 1932.870 952.742 C 1930.550 947.612, 1930.489 946.723, 1930 911 C 1929.500 874.500, 1929.500 874.500, 1924 874.405 C 1918.500 874.309, 1918.500 874.309, 1923.704 874.705 M 808 885.645 C 798.622 888.874, 790.491 897.354, 786.975 907.573 C 785.889 910.730, 785 913.468, 785 913.657 C 785 913.845, 800.124 914, 818.608 914 C 852.217 914, 852.217 914, 851.579 911.459 C 848.238 898.147, 840.480 888.408, 830.966 885.583 C 824.272 883.595, 813.873 883.623, 808 885.645 M 2323.994 884.934 C 2312.520 888.425, 2305.063 898.705, 2305.022 911.090 C 2305.004 916.468, 2305.563 918.807, 2308.060 923.804 C 2318.446 944.588, 2346.185 944.032, 2357.679 922.810 C 2360.376 917.832, 2360.173 904.819, 2357.317 899.500 C 2354.434 894.131, 2348.488 888.556, 2343 886.077 C 2338.349 883.976, 2328.993 883.413, 2323.994 884.934 M 809.792 886.338 C 800.485 888.970, 791.751 897.275, 788.663 906.428 C 787.748 909.139, 787 911.726, 787 912.178 C 787 912.630, 801.376 913, 818.946 913 C 850.892 913, 850.892 913, 849.056 907.663 C 848.046 904.727, 846.532 901.015, 845.692 899.413 C 843.455 895.146, 837.077 889.338, 832.564 887.458 C 827.259 885.247, 815.664 884.677, 809.792 886.338 M 2324.395 886.137 C 2319.592 887.217, 2312.944 892.580, 2309.197 898.396 C 2306.875 902, 2306.549 903.536, 2306.526 911 C 2306.503 918.503, 2306.823 920.050, 2309.256 924.188 C 2321.850 945.612, 2353.625 940.735, 2358.052 916.698 C 2361.788 896.415, 2345.293 881.438, 2324.395 886.137 M 2323.760 983.986 C 2309.298 985.803, 2301.257 990.618, 2299.061 998.774 C 2297.806 1003.435, 2298.759 1008.805, 2301.545 1012.768 C 2303.758 1015.917, 2311.394 1019.583, 2318.754 1021.031 C 2328.050 1022.860, 2347.066 1021.846, 2354.052 1019.148 C 2373.629 1011.589, 2373.834 991.102, 2354.387 985.707 C 2347.063 983.676, 2332.665 982.867, 2323.760 983.986 M 2325.321 985.096 C 2315.051 986.292, 2307.127 989.300, 2303.250 993.473 C 2300.348 996.596, 2300 997.601, 2300 1002.850 C 2300 1013.497, 2306.505 1018.332, 2323.359 1020.216 C 2355.478 1023.805, 2375.684 1010.786, 2364.950 993.418 C 2362.452 989.377, 2355.742 986.627, 2344.594 985.076 C 2336.077 983.892, 2335.653 983.892, 2325.321 985.096" stroke="none" fill="#868484" fill-rule="evenodd"/><path d="M 614.991 38.250 C 613.948 40.587, 594.415 82.547, 571.584 131.493 C 530.074 220.487, 530.074 220.487, 533.287 222.166 C 535.054 223.089, 536.808 223.542, 537.184 223.172 C 537.977 222.392, 622.991 40.305, 623.696 37.877 C 624.024 36.745, 623.188 35.913, 620.934 35.127 C 619.156 34.507, 617.518 34, 617.295 34 C 617.071 34, 616.034 35.913, 614.991 38.250 M 474.500 214.030 C 438.832 219.538, 407.466 244.600, 394.085 278.287 C 388.799 291.594, 386.718 304.416, 387.316 320 C 388.367 347.383, 398.341 370.240, 417.581 389.355 C 424.640 396.369, 439.062 407, 441.518 407 C 442.118 407, 450.195 390.688, 459.465 370.750 C 468.736 350.813, 476.920 333.291, 477.653 331.813 C 478.986 329.126, 478.986 329.126, 476.243 330.557 C 466.342 335.722, 455.106 325.861, 459.342 315.724 C 461.130 311.445, 466.141 308.009, 470.602 308.004 C 474.913 307.999, 480.295 311.850, 481.457 315.771 C 481.983 317.547, 482.706 319, 483.064 319 C 483.422 319, 485.639 314.837, 487.990 309.750 C 499.893 283.998, 499.206 285.742, 496.778 287.443 C 495.556 288.299, 492.624 289, 490.263 289 C 486.770 289, 485.275 288.363, 482.235 285.577 C 479.013 282.624, 478.500 281.553, 478.500 277.783 C 478.500 266.390, 490.921 261.074, 498.899 269.053 C 500.701 270.855, 501.999 273.306, 502.188 275.265 C 502.449 277.967, 504.643 273.908, 515.500 250.646 C 522.650 235.326, 528.652 222.382, 528.838 221.881 C 529.287 220.674, 523.529 218.334, 514.141 215.908 C 505.259 213.613, 483.789 212.596, 474.500 214.030 M 535.563 228.750 C 527.317 245.858, 451 410.300, 451 410.959 C 451 411.428, 452.962 412.480, 455.359 413.297 C 459.718 414.783, 459.718 414.783, 481.109 368.772 C 492.874 343.466, 503.093 322.531, 503.817 322.248 C 506.388 321.246, 507.201 323.584, 505.607 327.398 C 504.077 331.059, 504.077 331.059, 506.261 329.530 C 507.462 328.688, 510.335 328, 512.646 328 C 520.965 328, 526.834 336.674, 523.658 344.276 C 518.956 355.529, 504.419 353.831, 500.539 341.576 C 500.112 340.229, 494.689 350.873, 482.452 377.073 C 472.840 397.655, 465.164 414.985, 465.394 415.585 C 466.041 417.270, 478.764 419.004, 490.193 418.965 C 557.265 418.738, 606.083 355.774, 589.592 290.763 C 584.927 272.373, 576.200 257.067, 562.579 243.384 C 555.765 236.539, 540.374 225, 538.057 225 C 537.679 225, 536.557 226.688, 535.563 228.750 M 416.749 463.750 C 402.714 493.863, 371.319 561.250, 346.982 613.500 C 322.645 665.750, 302.563 708.693, 302.354 708.929 C 302.146 709.165, 299.618 708.385, 296.738 707.196 C 253.394 689.305, 202.964 687.093, 157.603 701.095 C 76.596 726.099, 19.665 797.718, 12.805 883.250 C 7.537 948.938, 35.450 1014.433, 87.101 1057.575 C 112.885 1079.112, 146.687 1095.025, 180.778 1101.676 C 193.202 1104.100, 196.723 1104.358, 218 1104.403 C 236.245 1104.441, 243.624 1104.061, 251 1102.704 C 264.749 1100.175, 279.124 1096.350, 290 1092.326 C 371.215 1062.279, 425 985.058, 425 898.500 C 425 827.461, 389.637 762.817, 329.502 723.926 C 325.926 721.614, 323 719.355, 323 718.907 C 323 718.159, 340.432 680.619, 431.095 486.127 C 448.624 448.523, 462.723 417.360, 462.424 416.877 C 462.126 416.395, 461.346 416.014, 460.691 416.032 C 460.036 416.049, 439.145 459.812, 414.267 513.282 C 389.390 566.752, 357.938 634.350, 344.376 663.500 C 330.814 692.650, 319.546 716.697, 319.337 716.939 C 319.127 717.180, 316.893 716.375, 314.372 715.150 C 310.999 713.511, 309.918 712.470, 310.284 711.211 C 310.558 710.270, 341.881 642.824, 379.891 561.330 C 417.901 479.837, 449 412.747, 449 412.241 C 449 411.344, 444.722 409, 443.087 409 C 442.636 409, 430.784 433.637, 416.749 463.750 M 294.568 721.604 C 284.447 729.332, 266.882 753.136, 247.550 785.325 C 199.762 864.891, 147.830 985.644, 134.867 1047.337 C 132.784 1057.250, 131.748 1076.059, 133.203 1077.529 C 136.281 1080.639, 150.100 1067.939, 163.156 1050 C 215.857 977.591, 289.909 814.021, 302.451 742.317 C 305.006 727.715, 304.269 718, 300.609 718 C 299.882 718, 297.164 719.622, 294.568 721.604 M 560.500 820.975 C 545.804 824.224, 534.054 833.253, 528.160 845.825 C 525.809 850.841, 525.500 852.720, 525.500 862 C 525.500 874.640, 527.263 879.359, 534.806 886.901 C 540.477 892.572, 545.127 895.103, 562.793 902.136 C 580.225 909.075, 586.388 912.525, 591.492 918.202 C 602.375 930.307, 601.230 949.332, 588.950 960.426 C 575.294 972.763, 554.984 971.522, 533.500 957.037 C 531.300 955.554, 528.938 954.012, 528.250 953.611 C 527.301 953.057, 527 954.533, 527 959.748 C 527 966.615, 527 966.615, 534.750 970.715 C 559.898 984.019, 583.150 982.461, 599.493 966.377 C 609.219 956.806, 613.393 943.663, 611.106 929.814 C 609.654 921.020, 606.160 914.359, 599.954 908.554 C 594.406 903.364, 587.890 899.943, 569.258 892.437 C 549.797 884.597, 544.647 881.061, 540.212 872.500 C 536.580 865.488, 536.603 855.638, 540.268 848.437 C 545.543 838.070, 555.385 831.964, 568.025 831.215 C 578.587 830.589, 587.251 833.117, 604.250 841.784 C 604.663 841.995, 605 839.406, 605 836.031 C 605 829.895, 605 829.895, 598.750 826.986 C 587.102 821.565, 569.992 818.876, 560.500 820.975 M 1511.661 821.066 C 1485.504 824.678, 1462.368 841.466, 1450.426 865.500 C 1444.791 876.840, 1442.800 886.160, 1442.843 901 C 1442.883 914.965, 1445.144 924.747, 1451.161 936.988 C 1456.626 948.107, 1470.649 962.605, 1482 968.870 C 1507.919 983.178, 1541.383 983.226, 1571.745 968.998 C 1580 965.130, 1580 965.130, 1580 958.982 C 1580 955.600, 1579.662 952.986, 1579.250 953.171 C 1578.838 953.357, 1574.675 955.362, 1570 957.625 C 1541.972 971.196, 1514.679 972.734, 1492.500 961.994 C 1475.328 953.678, 1462.354 938.128, 1457.463 920 C 1453.741 906.204, 1454.639 887.368, 1459.656 874 C 1467.047 854.306, 1485.054 838.229, 1505.609 832.972 C 1524.100 828.243, 1550.818 832.120, 1572.953 842.744 C 1579 845.646, 1579 845.646, 1579 839.484 C 1579 832.463, 1579.712 833.090, 1565.943 827.991 C 1549.547 821.919, 1526.643 818.998, 1511.661 821.066 M 736 900 C 736 978, 736 978, 741.500 978 C 747 978, 747 978, 747 900 C 747 822, 747 822, 741.500 822 C 736 822, 736 822, 736 900 M 972 900 C 972 978, 972 978, 977.488 978 C 982.977 978, 982.977 978, 983.238 938.804 C 983.500 899.609, 983.500 899.609, 1024.488 938.804 C 1065.475 978, 1065.475 978, 1072.952 978 C 1079.352 978, 1080.218 977.801, 1078.964 976.619 C 1059.520 958.277, 999.424 900.579, 999.224 900.061 C 998.960 899.376, 1009.514 888.181, 1053.257 842.750 C 1073.236 822, 1073.236 822, 1065.868 822.003 C 1058.500 822.007, 1058.500 822.007, 1021.500 860.485 C 1001.150 881.647, 984.163 898.971, 983.750 898.981 C 983.337 898.992, 983 881.675, 983 860.500 C 983 822, 983 822, 977.500 822 C 972 822, 972 822, 972 900 M 2032 900 C 2032 978, 2032 978, 2037.500 978 C 2043 978, 2043 978, 2043 900 C 2043 822, 2043 822, 2037.500 822 C 2032 822, 2032 822, 2032 900 M 1227.546 845.644 C 1224 850.288, 1224 850.288, 1224 862.644 C 1224 875, 1224 875, 1210 875 C 1196 875, 1196 875, 1196 879.500 C 1196 884, 1196 884, 1210 884 C 1224 884, 1224 884, 1224 924.032 C 1224 968.306, 1223.979 968.140, 1230.355 973.739 C 1237.807 980.282, 1248.187 981.321, 1261.750 976.882 C 1268 974.837, 1268 974.837, 1268 969.918 C 1268 967.213, 1267.662 965.015, 1267.250 965.033 C 1266.838 965.051, 1264.025 965.936, 1261 967 C 1254.842 969.166, 1245.923 969.566, 1241.119 967.892 C 1234.667 965.642, 1234.535 964.776, 1234.186 922.250 C 1233.872 884, 1233.872 884, 1248.436 884 C 1263 884, 1263 884, 1263 879.500 C 1263 875, 1263 875, 1248.500 875 C 1234 875, 1234 875, 1234 858 C 1234 838.606, 1233.561 837.766, 1227.546 845.644 M 2086.620 845.418 C 2083 849.837, 2083 849.837, 2083 862.418 C 2083 875, 2083 875, 2069 875 C 2055 875, 2055 875, 2055 879.500 C 2055 884, 2055 884, 2069 884 C 2083 884, 2083 884, 2083 924.032 C 2083 968.306, 2082.979 968.140, 2089.355 973.739 C 2094.918 978.623, 2102.775 980.553, 2111.493 979.178 C 2115.347 978.569, 2120.412 977.313, 2122.750 976.384 C 2126.934 974.723, 2127 974.621, 2127 969.848 C 2127 967.182, 2126.887 965.006, 2126.750 965.013 C 2126.613 965.020, 2123.647 965.920, 2120.161 967.013 C 2113.118 969.221, 2104.958 969.579, 2100.119 967.892 C 2093.667 965.642, 2093.535 964.776, 2093.186 922.250 C 2092.872 884, 2092.872 884, 2107.436 884 C 2122 884, 2122 884, 2122 879.500 C 2122 875, 2122 875, 2107.500 875 C 2093 875, 2093 875, 2093 858 C 2093 838.697, 2092.667 838.040, 2086.620 845.418 M 662.500 873.659 C 656.717 874.580, 649.442 877.043, 643 880.260 C 636.500 883.505, 636.500 883.505, 636.198 888.753 C 636.031 891.639, 636.121 894, 636.398 894 C 636.674 894, 638.917 892.639, 641.382 890.975 C 655.893 881.182, 674.414 879.032, 683.397 886.098 C 688.389 890.025, 690 894.859, 690 905.915 C 690 917.233, 691.166 916.151, 677.500 917.515 C 669.036 918.360, 657.582 921.594, 650.208 925.221 C 637.582 931.431, 631.027 941.012, 631.010 953.282 C 630.998 961.263, 632.485 965.318, 637.432 970.793 C 643.066 977.029, 648.921 979.403, 658.500 979.336 C 667.562 979.273, 675.016 976.917, 683.769 971.351 C 686.668 969.508, 689.480 968, 690.019 968 C 690.559 968, 691 969.329, 691 970.953 C 691 981.644, 697.942 982.411, 712.108 973.285 C 717.775 969.633, 717.983 969.348, 717.991 965.191 C 717.996 962.821, 717.621 961.116, 717.157 961.403 C 716.693 961.690, 713.916 963.538, 710.986 965.509 C 708.056 967.481, 704.723 968.961, 703.579 968.797 C 701.525 968.504, 701.494 968.043, 701 930 C 700.500 891.500, 700.500 891.500, 697.695 886.728 C 693.073 878.866, 684.232 874.324, 672.106 873.584 C 668.473 873.362, 664.150 873.396, 662.500 873.659 M 810.108 874.082 C 803.948 875.292, 794.255 880.094, 789.355 884.363 C 772.246 899.274, 767.541 929.668, 778.758 952.817 C 782.341 960.212, 792.885 970.882, 800.024 974.339 C 811.414 979.854, 825.435 981.115, 838.885 977.836 C 845.022 976.339, 855.561 971.572, 859.681 968.430 C 862.724 966.109, 863 965.445, 863 960.449 C 863 957.452, 862.826 955, 862.614 955 C 862.402 955, 859.535 956.798, 856.244 958.996 C 838.802 970.643, 817.488 972.193, 802.848 962.878 C 796.658 958.939, 789.945 951.613, 787.073 945.663 C 784.579 940.497, 782.230 927.449, 783.295 924.675 C 783.881 923.147, 787.472 923, 824.269 923 C 864.600 923, 864.600 923, 863.837 915.102 C 861.863 894.682, 848.115 878.461, 829.426 874.502 C 821.796 872.886, 816.757 872.776, 810.108 874.082 M 908.344 873.985 C 899.102 875.939, 889.806 882.729, 885.735 890.500 C 884.233 893.367, 883.640 896.341, 883.640 901 C 883.640 914.483, 891.328 922.077, 914.008 930.999 C 928.248 936.600, 934.022 941.105, 936.057 948.199 C 938.224 955.756, 931.681 965.659, 922.964 968.014 C 914.115 970.405, 900.030 968.015, 884.750 961.529 C 883.213 960.877, 883 961.415, 883 965.946 C 883 971.105, 883 971.105, 889.344 974.074 C 911.750 984.559, 935.276 979.602, 944.274 962.500 C 947.603 956.173, 947.267 946.043, 943.501 939.154 C 939.597 932.014, 933.210 927.592, 916.451 920.424 C 908.930 917.208, 901.201 913.152, 898.999 911.267 C 891.466 904.819, 891.494 895.157, 899.065 888.677 C 907.797 881.202, 920.032 881.064, 934.205 888.281 C 939.056 890.751, 943.052 892.253, 943.116 891.630 C 943.506 887.822, 942.904 882.590, 941.942 881.430 C 941.323 880.685, 937.322 878.727, 933.051 877.080 C 924.557 873.804, 914.914 872.596, 908.344 873.985 M 1130.324 874.439 C 1128.027 875.158, 1124.629 876.684, 1122.771 877.832 C 1118.485 880.481, 1108.426 890.989, 1103.943 897.500 C 1100.500 902.500, 1100.500 902.500, 1100.222 888.750 C 1099.944 875, 1099.944 875, 1094.972 875 C 1090 875, 1090 875, 1090 926.500 C 1090 978, 1090 978, 1095 978 C 1100 978, 1100 978, 1100 945.742 C 1100 913.483, 1100 913.483, 1104.090 907.224 C 1113.484 892.846, 1124.390 884.028, 1132.800 884.009 C 1137.703 883.999, 1141.257 885.619, 1148.771 891.292 C 1151.676 893.486, 1154.200 895.105, 1154.380 894.890 C 1154.560 894.676, 1155.922 892.395, 1157.406 889.822 C 1160.105 885.144, 1160.105 885.144, 1154.617 881.001 C 1148.852 876.648, 1140.527 872.954, 1136.739 873.067 C 1135.508 873.104, 1132.621 873.721, 1130.324 874.439 M 1310.500 873.659 C 1304.717 874.580, 1297.442 877.043, 1291 880.260 C 1284.500 883.505, 1284.500 883.505, 1284.198 888.753 C 1284.031 891.639, 1284.121 894, 1284.398 894 C 1284.674 894, 1286.917 892.639, 1289.382 890.975 C 1291.847 889.311, 1296.482 886.735, 1299.682 885.249 C 1304.772 882.886, 1306.760 882.545, 1315.573 882.524 C 1324.909 882.502, 1325.950 882.701, 1329.803 885.251 C 1336.225 889.501, 1338 893.976, 1338 905.915 C 1338 917.233, 1339.166 916.151, 1325.500 917.515 C 1317.036 918.360, 1305.582 921.594, 1298.208 925.221 C 1285.582 931.431, 1279.027 941.012, 1279.010 953.282 C 1278.998 961.263, 1280.485 965.318, 1285.432 970.793 C 1291.066 977.029, 1296.921 979.403, 1306.500 979.336 C 1315.562 979.273, 1323.016 976.917, 1331.769 971.351 C 1334.668 969.508, 1337.480 968, 1338.019 968 C 1338.559 968, 1339 969.329, 1339 970.953 C 1339 981.644, 1345.942 982.411, 1360.108 973.285 C 1365.775 969.633, 1365.983 969.348, 1365.991 965.191 C 1365.996 962.821, 1365.621 961.116, 1365.157 961.403 C 1364.693 961.690, 1361.948 963.516, 1359.056 965.462 C 1352.930 969.585, 1350.255 969.946, 1349.521 966.750 C 1349.237 965.513, 1348.891 948.075, 1348.752 928 C 1348.500 891.500, 1348.500 891.500, 1345.695 886.728 C 1341.073 878.866, 1332.232 874.324, 1320.106 873.584 C 1316.473 873.362, 1312.150 873.396, 1310.500 873.659 M 1636.411 874.484 C 1626.986 876.535, 1618.361 881.421, 1610.994 888.885 C 1599.984 900.038, 1595.379 912.923, 1596.299 930 C 1597.510 952.485, 1610.414 969.993, 1631 977.083 C 1640.203 980.253, 1655.816 980.253, 1664.946 977.084 C 1686.169 969.718, 1699.965 949.789, 1699.965 926.500 C 1699.965 891.964, 1669.746 867.231, 1636.411 874.484 M 1761.384 874.412 C 1754.033 876.196, 1747.998 880.083, 1741.597 887.155 C 1736 893.341, 1736 893.341, 1736 884.170 C 1736 875, 1736 875, 1730.500 875 C 1725 875, 1725 875, 1725 926.500 C 1725 978, 1725 978, 1730.500 978 C 1736 978, 1736 978, 1736 941.590 C 1736 905.180, 1736 905.180, 1739.829 900.340 C 1745 893.803, 1750.476 889.138, 1755.949 886.606 C 1759.565 884.934, 1762.451 884.501, 1770 884.501 C 1778.609 884.500, 1779.948 884.763, 1784.272 887.305 C 1789.393 890.315, 1792.876 894.807, 1795.670 902 C 1797.189 905.912, 1797.464 911.172, 1797.776 942.250 C 1798.136 978, 1798.136 978, 1803.112 978 C 1808.089 978, 1808.089 978, 1807.795 939.750 C 1807.508 902.482, 1807.441 901.354, 1805.196 895.798 C 1800.672 884.601, 1790.443 876.261, 1778.566 874.087 C 1771.277 872.752, 1767.966 872.814, 1761.384 874.412 M 1858.344 873.985 C 1849.085 875.942, 1839.757 882.765, 1835.769 890.497 C 1834.324 893.298, 1833.697 896.441, 1833.673 900.997 C 1833.612 912.851, 1838.786 919.198, 1854.500 926.544 C 1878.280 937.660, 1880.937 939.103, 1883.019 942.027 C 1887.878 948.851, 1887.485 956.100, 1881.911 962.448 C 1874.023 971.432, 1857.314 971.106, 1834.750 961.529 C 1833.213 960.877, 1833 961.415, 1833 965.946 C 1833 971.105, 1833 971.105, 1839.344 974.074 C 1861.749 984.558, 1885.329 979.589, 1894.260 962.500 C 1897.499 956.303, 1897.262 947.052, 1893.678 939.754 C 1890.009 932.282, 1883.781 927.792, 1867.695 921.021 C 1848.332 912.872, 1843.615 908.759, 1843.615 900.025 C 1843.615 895.981, 1844.180 894.346, 1846.611 891.342 C 1851.460 885.351, 1856.075 883.500, 1866.160 883.500 C 1874.484 883.500, 1875.172 883.680, 1883.910 888.130 C 1893 892.759, 1893 892.759, 1893 887.403 C 1893 882.775, 1892.656 881.820, 1890.469 880.388 C 1882.717 875.308, 1866.951 872.166, 1858.344 873.985 M 2222.384 874.412 C 2215.033 876.196, 2208.998 880.083, 2202.597 887.155 C 2197 893.341, 2197 893.341, 2197 884.170 C 2197 875, 2197 875, 2191.500 875 C 2186 875, 2186 875, 2186 926.500 C 2186 978, 2186 978, 2191.500 978 C 2197 978, 2197 978, 2197 941.930 C 2197 905.860, 2197 905.860, 2199.892 901.657 C 2203.979 895.716, 2211.345 889.193, 2216.824 886.662 C 2220.577 884.928, 2223.376 884.501, 2231 884.501 C 2239.609 884.500, 2240.948 884.763, 2245.272 887.305 C 2250.393 890.315, 2253.876 894.807, 2256.670 902 C 2258.189 905.912, 2258.464 911.172, 2258.776 942.250 C 2259.136 978, 2259.136 978, 2264.112 978 C 2269.089 978, 2269.089 978, 2268.795 939.750 C 2268.508 902.482, 2268.441 901.354, 2266.196 895.798 C 2263.337 888.721, 2256.204 880.644, 2250.067 877.534 C 2245.224 875.080, 2235.840 872.939, 2230.566 873.085 C 2228.880 873.132, 2225.198 873.729, 2222.384 874.412 M 1173 926.500 C 1173 978, 1173 978, 1178.500 978 C 1184 978, 1184 978, 1184 926.500 C 1184 875, 1184 875, 1178.500 875 C 1173 875, 1173 875, 1173 926.500 M 1918.247 911.750 C 1918.731 951.308, 1919.116 954.472, 1924.492 962.987 C 1927.990 968.529, 1935.524 974.667, 1941.853 977.134 C 1950.355 980.447, 1964.469 980.309, 1972.046 976.838 C 1978.361 973.945, 1983.620 969.647, 1987.105 964.531 C 1988.422 962.596, 1989.838 961.011, 1990.250 961.007 C 1990.662 961.003, 1991 964.825, 1991 969.500 C 1991 978, 1991 978, 1996 978 C 2001 978, 2001 978, 2001 926.500 C 2001 875, 2001 875, 1996 875 C 1991 875, 1991 875, 1991 911.070 C 1991 947.140, 1991 947.140, 1988.057 951.418 C 1982.914 958.892, 1974.478 965.805, 1968.314 967.597 C 1961.248 969.651, 1949.992 969.141, 1944.597 966.522 C 1939.328 963.964, 1934.194 958.648, 1931.623 953.089 C 1929.600 948.717, 1929.486 946.764, 1929.204 911.750 C 1928.908 875, 1928.908 875, 1923.353 875 C 1917.797 875, 1917.797 875, 1918.247 911.750 M 2145 926.500 C 2145 978, 2145 978, 2150.500 978 C 2156 978, 2156 978, 2156 926.500 C 2156 875, 2156 875, 2150.500 875 C 2145 875, 2145 875, 2145 926.500 M 2327.347 876.095 C 2313.826 878.354, 2303.395 885.406, 2298.364 895.689 C 2294.509 903.568, 2293.917 915.143, 2296.957 923.202 C 2300.073 931.462, 2306.908 938.615, 2315.500 942.605 C 2321.162 945.235, 2322.118 945.989, 2320.500 946.552 C 2316.650 947.892, 2308.486 951.893, 2306.954 953.191 C 2299.045 959.890, 2300.645 970.064, 2310.315 974.566 C 2313.167 975.894, 2316.063 976.985, 2316.750 976.990 C 2317.438 976.996, 2318 977.450, 2318 978 C 2318 978.550, 2317.147 979, 2316.105 979 C 2315.063 979, 2311.312 979.895, 2307.770 980.989 C 2295.028 984.925, 2288.691 992.292, 2288.675 1003.189 C 2288.663 1011.590, 2291.962 1017.419, 2299.671 1022.615 C 2308.350 1028.464, 2317.047 1030.462, 2333.500 1030.384 C 2351.601 1030.299, 2361.986 1027.341, 2370.531 1019.839 C 2376.464 1014.629, 2378.463 1009.749, 2378.483 1000.422 C 2378.498 993.156, 2378.195 991.850, 2375.469 987.440 C 2369.733 978.163, 2363.521 975.746, 2339.558 973.466 C 2330.726 972.626, 2321.974 971.521, 2320.109 971.011 C 2312.225 968.855, 2309.613 961.990, 2314.477 956.209 C 2316.983 953.231, 2317.488 953.034, 2339.500 946.466 C 2350.899 943.064, 2356.535 940.174, 2361.201 935.336 C 2367.228 929.088, 2369.421 923.017, 2369.450 912.500 C 2369.479 901.949, 2367.588 897.095, 2360.283 888.970 C 2355.815 884, 2355.815 884, 2367.407 884 C 2379 884, 2379 884, 2379 879.500 C 2379 875, 2379 875, 2355.750 875.117 C 2342.963 875.181, 2330.181 875.621, 2327.347 876.095 M 808 885.645 C 798.622 888.874, 790.491 897.354, 786.975 907.573 C 785.889 910.730, 785 913.468, 785 913.657 C 785 913.845, 800.124 914, 818.608 914 C 852.217 914, 852.217 914, 851.579 911.459 C 848.238 898.147, 840.480 888.408, 830.966 885.583 C 824.272 883.595, 813.873 883.623, 808 885.645 M 1634.804 885.872 C 1623.893 889.469, 1614.251 898.849, 1609.712 910.281 C 1606.649 917.995, 1606.700 935.306, 1609.807 943 C 1616.793 960.297, 1631.715 969.791, 1650.374 968.811 C 1670.068 967.778, 1684.820 954.008, 1688.221 933.485 C 1691.318 914.797, 1681.146 894.868, 1664.712 887.426 C 1656.495 883.705, 1643.436 883.027, 1634.804 885.872 M 2323.994 884.934 C 2312.520 888.425, 2305.063 898.705, 2305.022 911.090 C 2305.004 916.468, 2305.563 918.807, 2308.060 923.804 C 2318.446 944.588, 2346.185 944.032, 2357.679 922.810 C 2360.376 917.832, 2360.173 904.819, 2357.317 899.500 C 2354.434 894.131, 2348.488 888.556, 2343 886.077 C 2338.349 883.976, 2328.993 883.413, 2323.994 884.934 M 669.643 926.584 C 651.867 930.887, 640.044 942.698, 641.224 954.975 C 641.823 961.215, 645.361 966.028, 651.550 969.024 C 655.425 970.900, 657.290 971.173, 663.327 970.749 C 671.491 970.176, 677.200 967.942, 684.735 962.370 C 689.970 958.500, 689.970 958.500, 689.985 941.750 C 690 925, 690 925, 682.750 925.083 C 678.763 925.129, 672.864 925.805, 669.643 926.584 M 1317.643 926.584 C 1299.867 930.887, 1288.044 942.698, 1289.224 954.975 C 1289.823 961.215, 1293.361 966.028, 1299.550 969.024 C 1303.425 970.900, 1305.290 971.173, 1311.327 970.749 C 1319.491 970.176, 1325.200 967.942, 1332.735 962.370 C 1337.970 958.500, 1337.970 958.500, 1337.985 941.750 C 1338 925, 1338 925, 1330.750 925.083 C 1326.763 925.129, 1320.864 925.805, 1317.643 926.584 M 2323.760 983.986 C 2309.298 985.803, 2301.257 990.618, 2299.061 998.774 C 2297.806 1003.435, 2298.759 1008.805, 2301.545 1012.768 C 2303.758 1015.917, 2311.394 1019.583, 2318.754 1021.031 C 2328.050 1022.860, 2347.066 1021.846, 2354.052 1019.148 C 2373.629 1011.589, 2373.834 991.102, 2354.387 985.707 C 2347.063 983.676, 2332.665 982.867, 2323.760 983.986" stroke="none" fill="#531e1e" fill-rule="evenodd"/></svg>